<?xml version="1.0" encoding="utf-8"?>
<svg viewBox="-352.988 -20.765 1981.168 358.114" xmlns="http://www.w3.org/2000/svg">
  <path fill="#FFFFFF" opacity="0" stroke="none" d=" M2814.000000,2466.000000 C1876.000244,2466.000000 939.000549,2466.000000 2.000628,2466.000000 C2.000419,1644.667236 2.000419,823.334412 2.000210,2.001179 C1303.332397,2.000786 2604.664795,2.000786 3905.998047,2.000393 C3905.998535,823.332214 3905.998535,1644.664429 3905.999268,2465.998291 C3542.333252,2466.000000 3178.666748,2466.000000 2814.000000,2466.000000 M3216.326172,1553.000000 C3216.326172,1062.803955 3216.326172,572.607849 3216.326172,81.668251 C2437.487549,81.668236 1659.757202,81.668236 882.260498,81.668259 C882.260498,860.663086 882.260498,1638.158325 882.260498,2415.584961 C1564.924194,2415.584961 2247.000732,2415.584961 2929.945312,2415.584961 C2929.945312,2320.017090 2929.945312,2225.192139 2929.945312,2129.535645 C3025.650146,2129.535645 3120.490967,2129.535645 3216.326172,2129.535645 C3216.326172,1937.465576 3216.326172,1746.232788 3216.326172,1553.000000 z" transform="matrix(1, 0, 0, 1, -1432.932373, -984.000183)"/>
  <path opacity="1.000000" stroke="none" d="M 3064.057 1176.699 C 3064.057 1202.643 3064.057 1228.453 3064.057 1254.376 C 2981.863 1254.376 2900.522 1254.376 2818.438 1254.376 C 2818.438 1267.286 2818.438 1280.084 2818.438 1292.983 C 2232.701 1292.983 1647.71 1292.983 1062.215 1292.983 C 1062.215 1188.057 1062.215 1083.121 1062.215 977.983 C 1729.046 977.983 2396.076 977.983 3064.057 977.983 C 3064.057 1044.244 3064.057 1110.403 3064.057 1176.699 M 2507.23 1155.612 C 2509.126 1155.26 2511.723 1154.951 2512.756 1154.545 C 2514.407 1153.895 2515.13 1153.184 2516.04 1152.493 C 2517.28 1151.549 2516.375 1151.311 2508.974 1150.603 C 2506.919 1150.468 2504.873 1150.221 2502.807 1150.218 C 2485.998 1150.185 2469.186 1150.192 2452.375 1150.206 C 2448.203 1150.209 2445.418 1150.565 2444.366 1151.211 C 2443.728 1151.6 2443.254 1151.997 2442.782 1152.393 C 2438.8 1155.738 2434.835 1159.084 2429.463 1162.428 C 2428.061 1162.426 2426.657 1162.422 2424.265 1162.307 C 2421.607 1161.68 2417.41 1161.765 2413.479 1161.732 C 2409.662 1161.7 2405.841 1161.675 2401.55 1161.643 C 2402.588 1160.694 2403.374 1159.945 2404.229 1159.199 C 2406.805 1156.95 2409.548 1154.706 2411.954 1152.453 C 2413.832 1150.696 2410.909 1150.18 2399.431 1150.154 C 2394.592 1150.143 2389.748 1150.163 2384.907 1150.179 C 2375.68 1150.211 2374.008 1150.411 2372.325 1151.812 C 2369.418 1154.233 2366.792 1156.66 2363.822 1159.077 C 2362.435 1160.205 2360.513 1161.316 2357.43 1162.432 C 2356.024 1162.428 2354.617 1162.424 2352.223 1162.307 C 2349.553 1161.678 2345.345 1161.766 2341.408 1161.732 C 2337.59 1161.698 2333.774 1161.669 2329.643 1161.635 C 2330.057 1161.17 2330.236 1160.905 2330.535 1160.643 C 2333.758 1157.813 2337.178 1154.989 2340.16 1152.153 C 2341.608 1150.775 2338.492 1150.221 2329.685 1150.165 C 2323.986 1150.129 2318.263 1150.156 2312.555 1150.181 C 2303.451 1150.221 2301.938 1150.413 2300.227 1151.868 C 2294.773 1156.501 2289.402 1161.138 2284.077 1165.777 C 2282.579 1167.081 2285.932 1167.733 2294.638 1167.751 C 2309.771 1167.785 2324.914 1167.792 2340.041 1167.736 C 2343.176 1167.724 2346.261 1167.387 2350.703 1167.168 C 2352.388 1167.082 2354.073 1166.997 2356.679 1167.044 C 2359.407 1167.677 2363.48 1167.768 2367.918 1167.766 C 2382.104 1167.756 2396.29 1167.755 2410.473 1167.768 C 2414.593 1167.772 2418.382 1167.676 2422.676 1167.173 C 2424.264 1167.099 2425.853 1167.025 2428.19 1167.113 C 2431.089 1167.733 2435.299 1167.763 2439.649 1167.762 C 2453.539 1167.756 2467.436 1167.796 2481.315 1167.737 C 2485.05 1167.722 2488.737 1167.421 2493.702 1167.232 C 2501.01 1166.42 2505.061 1164.199 2501.282 1162.784 C 2499.677 1162.182 2499.787 1161.769 2501.981 1161.184 C 2506.052 1160.099 2508.236 1158.877 2507.648 1157.586 C 2507.344 1156.92 2506.594 1156.259 2506.109 1155.632 C 2506.109 1155.632 2505.945 1155.605 2507.23 1155.612 M 1805.783 1167.324 C 1808.984 1167.47 1812.137 1167.694 1815.395 1167.743 C 1820.205 1167.814 1825.091 1167.769 1829.944 1167.761 C 1839.991 1167.744 1842.355 1167.441 1844.203 1165.874 C 1847.225 1163.313 1850.132 1160.748 1853.087 1158.186 C 1855.378 1156.196 1857.861 1154.213 1859.895 1152.218 C 1861.357 1150.785 1858.179 1150.212 1848.956 1150.16 C 1842.969 1150.127 1836.96 1150.126 1830.974 1150.165 C 1823.552 1150.213 1821.562 1150.491 1820.135 1151.66 C 1817.767 1153.599 1815.659 1155.546 1813.307 1157.486 C 1810.645 1159.683 1807.835 1161.875 1804.01 1163.924 C 1800.788 1161.037 1797.594 1158.15 1794.332 1155.264 C 1793.094 1154.169 1791.919 1153.07 1790.279 1151.99 C 1789.469 1151.457 1788.952 1150.785 1782.764 1150.661 C 1779.63 1150.5 1776.551 1150.241 1773.353 1150.198 C 1767.694 1150.121 1761.932 1150.234 1756.265 1150.163 C 1748.751 1150.069 1744.248 1150.517 1740.794 1151.6 C 1732.362 1154.245 1723.147 1156.827 1714.265 1159.434 C 1707.538 1161.411 1700.722 1163.38 1694.167 1165.37 C 1689.352 1166.832 1692.749 1167.708 1703.262 1167.756 C 1709.529 1167.785 1715.806 1167.75 1722.077 1167.765 C 1727.46 1167.779 1731.385 1167.451 1733.772 1166.671 C 1735.245 1166.189 1736.985 1165.728 1738.756 1165.213 C 1745.101 1165.213 1751.278 1165.213 1757.775 1165.213 C 1758.242 1165.554 1758.627 1165.854 1759.069 1166.152 C 1760.995 1167.451 1762.979 1167.726 1771.21 1167.757 C 1777.195 1167.779 1783.218 1167.822 1789.159 1167.739 C 1792.669 1167.691 1796.052 1167.417 1800.793 1167.242 C 1802.087 1167.23 1803.38 1167.218 1805.783 1167.324 M 2050.88 1155.364 C 2052.036 1155.252 2053.77 1155.182 2054.251 1155.021 C 2057.615 1153.893 2059.187 1152.699 2058.325 1151.451 C 2057.999 1150.98 2055.847 1150.796 2051.896 1150.689 C 2049.35 1150.118 2045.46 1150.183 2041.794 1150.181 C 2027.812 1150.173 2013.827 1150.171 1999.843 1150.182 C 1989.494 1150.19 1988.126 1150.357 1986.253 1151.95 C 1980.857 1156.537 1975.569 1161.126 1970.287 1165.716 C 1968.743 1167.057 1971.853 1167.725 1980.346 1167.747 C 1995.466 1167.787 2010.595 1167.753 2025.721 1167.763 C 2029.991 1167.768 2033.526 1167.554 2037.426 1166.989 C 2039.885 1166.618 2042.343 1166.248 2045.669 1166 C 2062.942 1168.39 2082.545 1168.707 2103.198 1167.411 C 2122.655 1166.189 2134.615 1162.489 2129.027 1159.451 C 2127.219 1158.468 2122.661 1157.611 2119.497 1156.735 C 2124.142 1155.672 2129.507 1154.525 2134.295 1153.323 C 2138.394 1152.294 2137.16 1151.522 2130.589 1150.957 C 2116.186 1149.716 2101.112 1149.311 2085.274 1150.246 C 2065.36 1151.422 2052.244 1155.298 2058.486 1158.341 C 2060.228 1159.19 2064.081 1159.932 2066.948 1160.718 C 2062.174 1160.62 2058.885 1161.054 2056.174 1161.704 C 2053.208 1162.415 2049.908 1163.092 2045.769 1163.654 C 2044.742 1163.249 2043.992 1162.818 2042.616 1162.443 C 2041.031 1162.01 2041.774 1161.709 2043.583 1161.364 C 2050.444 1160.057 2050.578 1158.515 2049.54 1156.941 C 2049.253 1156.502 2048.805 1156.067 2048.599 1155.526 C 2048.778 1155.455 2049.093 1155.405 2050.88 1155.364 M 2247.291 1152.596 C 2247.366 1152.861 2247.738 1153.134 2247.468 1153.388 C 2245.504 1155.249 2243.454 1157.107 2241.349 1158.966 C 2238.792 1161.22 2235.934 1163.468 2233.631 1165.729 C 2232.144 1167.19 2235.268 1167.716 2244.693 1167.757 C 2249.548 1167.779 2254.409 1167.768 2259.269 1167.761 C 2269.854 1167.749 2271.927 1167.481 2273.992 1165.796 C 2275.829 1164.297 2277.484 1162.79 2279.22 1161.286 C 2282.696 1158.278 2286.234 1155.273 2289.619 1152.263 C 2291.219 1150.839 2288.057 1150.218 2278.984 1150.16 C 2273.278 1150.124 2267.555 1150.157 2261.839 1150.154 C 2256.649 1150.149 2252.193 1150.325 2250.145 1151.206 C 2249.924 1151.302 2248.33 1151.318 2247.398 1151.164 C 2246.219 1150.423 2242.699 1150.188 2238.389 1150.173 C 2231.828 1150.15 2225.255 1150.184 2218.702 1150.144 C 2212.269 1150.104 2208.019 1150.49 2205.075 1151.421 C 2200.883 1152.744 2196.054 1154.019 2191.387 1155.306 C 2190.488 1155.553 2189.08 1155.755 2187.298 1156.094 C 2186.52 1155.684 2185.913 1155.439 2185.598 1155.185 C 2184.23 1154.084 2183.068 1152.977 2181.61 1151.878 C 2179.764 1150.49 2177.341 1150.183 2168.148 1150.155 C 2162.156 1150.134 2156.157 1150.127 2150.169 1150.161 C 2140.43 1150.217 2137.572 1150.804 2139.529 1152.334 C 2141.045 1153.522 2142.832 1154.701 2144.424 1155.885 C 2149.024 1159.309 2153.545 1162.734 2158.187 1166.156 C 2159.872 1167.397 2162.41 1167.714 2170.51 1167.758 C 2173.931 1167.776 2177.378 1167.725 2180.779 1167.77 C 2187.588 1167.86 2191.992 1167.405 2195.327 1166.477 C 2211.462 1161.984 2227.818 1157.51 2244.141 1153.051 C 2244.141 1153.051 2244.046 1153.036 2245.308 1152.726 C 2245.63 1152.613 2245.951 1152.501 2247.291 1152.596 M 1904.564 1162.846 C 1908.998 1164.048 1913.732 1165.225 1917.771 1166.459 C 1920.931 1167.425 1925.391 1167.84 1932.196 1167.773 C 1937.319 1167.722 1942.481 1167.782 1947.617 1167.757 C 1955.286 1167.721 1957.857 1167.413 1959.273 1166.221 C 1964.88 1161.494 1970.368 1156.765 1975.739 1152.032 C 1977.09 1150.843 1973.959 1150.246 1966.113 1150.188 C 1959.277 1150.137 1952.401 1150.149 1945.558 1150.195 C 1939.6 1150.234 1937.619 1150.505 1936.134 1151.455 C 1934.909 1152.238 1934.261 1153.043 1933.253 1153.836 C 1932.288 1154.594 1931.185 1155.349 1929.795 1156.36 C 1928.065 1155.914 1927.298 1155.732 1926.625 1155.541 C 1921.783 1154.165 1916.762 1152.805 1912.201 1151.406 C 1909.22 1150.491 1904.904 1150.084 1898.453 1150.143 C 1893.896 1150.185 1889.315 1150.16 1884.746 1150.176 C 1873.605 1150.213 1871.972 1150.436 1870.058 1152.105 C 1866.764 1154.977 1863.404 1157.846 1860.108 1160.718 C 1858.181 1162.398 1856.092 1164.073 1854.508 1165.76 C 1853.191 1167.164 1856.188 1167.706 1864.939 1167.755 C 1870.932 1167.788 1876.936 1167.751 1882.935 1167.764 C 1887.279 1167.774 1890.686 1167.523 1894.488 1166.955 C 1900.255 1166.72 1899.631 1165.897 1900.642 1165.247 C 1901.956 1164.4 1902.881 1163.539 1904.564 1162.846 M 1512.965 1118.504 C 1513.571 1117.93 1514.124 1117.355 1514.792 1116.783 C 1519.265 1112.954 1523.861 1109.129 1528.201 1105.296 C 1529.747 1103.933 1531.192 1102.557 1531.749 1101.178 C 1532.211 1100.037 1527.855 1099.203 1521.327 1099.025 C 1514.616 1098.842 1507.796 1098.675 1501.012 1098.661 C 1479.295 1098.619 1457.567 1098.701 1435.856 1098.636 C 1424.619 1098.6 1419.002 1099.387 1417.105 1101.23 C 1414.69 1103.574 1411.813 1105.906 1409.14 1108.245 C 1403.741 1112.966 1398.373 1117.688 1392.932 1122.408 C 1391.065 1124.028 1389.019 1125.644 1386.949 1127.348 C 1380.927 1127.348 1375.535 1127.371 1370.153 1127.341 C 1362.837 1127.304 1361.278 1126.967 1362.663 1125.807 C 1363.607 1125.016 1364.653 1124.227 1365.503 1123.435 C 1368.624 1120.522 1371.421 1117.602 1374.823 1114.7 C 1379.878 1110.387 1385.372 1106.088 1390.611 1101.78 C 1392.145 1100.519 1387.214 1099.296 1379.238 1099.029 C 1373.691 1098.843 1367.995 1098.675 1362.355 1098.665 C 1338.923 1098.629 1315.488 1098.636 1292.055 1098.666 C 1282.253 1098.679 1278.115 1099.269 1276.353 1100.78 C 1270.608 1105.711 1264.926 1110.643 1259.229 1115.575 C 1252.554 1121.353 1245.699 1127.126 1239.337 1132.911 C 1237.452 1134.624 1236.62 1136.347 1239.346 1138.113 C 1243.62 1140.882 1254.468 1142.583 1271.083 1143.442 C 1283.071 1144.061 1295.509 1144.305 1308.169 1144.299 C 1335.604 1144.284 1363.039 1144.294 1390.473 1144.302 C 1408.238 1144.306 1425.666 1143.92 1442.906 1143.261 C 1466.511 1142.36 1481.869 1140.075 1489.893 1136.492 C 1496.565 1133.514 1498.878 1130.39 1502.68 1127.316 C 1506.212 1124.46 1509.472 1121.597 1512.965 1118.504 M 2304.704 1139.71 C 2312.5 1138.322 2316.587 1136.636 2319.046 1134.877 C 2323.449 1131.729 2327.293 1128.561 2331.049 1125.393 C 2335.691 1121.477 2340.141 1117.555 2344.407 1113.629 C 2346.944 1111.292 2350.777 1108.969 2349.972 1106.574 C 2348.92 1103.432 2339.927 1101.082 2320.781 1099.907 C 2305.739 1098.983 2289.866 1098.673 2273.832 1098.66 C 2240.672 1098.631 2207.51 1098.636 2174.351 1098.671 C 2167.547 1098.678 2160.675 1098.807 2153.965 1098.996 C 2124.093 1099.84 2104.396 1102.552 2096.567 1107.172 C 2091.664 1110.064 2088.15 1113.018 2084.568 1115.964 C 2079.211 1120.366 2074.168 1124.78 2069.336 1129.199 C 2066.73 1131.581 2062.624 1133.952 2063.771 1136.398 C 2065.608 1140.322 2076.786 1142.418 2097.154 1143.447 C 2109.112 1144.05 2121.548 1144.323 2134.254 1144.305 C 2159.409 1144.269 2184.573 1144.247 2209.721 1144.317 C 2228.393 1144.368 2246.758 1144.04 2264.923 1143.444 C 2280.322 1142.939 2294.043 1141.898 2304.704 1139.71 M 2370.349 1107.902 C 2367.1 1110.626 2363.788 1113.348 2360.617 1116.075 C 2356.775 1119.381 2353.091 1122.691 2349.262 1125.997 C 2343.955 1130.582 2338.559 1135.165 2333.254 1139.75 C 2332.438 1140.456 2331.535 1141.165 2331.32 1141.878 C 2330.953 1143.101 2333.876 1143.723 2341.235 1144.068 C 2343.929 1144.194 2346.811 1144.278 2349.612 1144.28 C 2371.037 1144.301 2392.493 1144.403 2413.876 1144.256 C 2424.956 1144.179 2437.011 1144.2 2445.726 1142.655 C 2458.328 1143.664 2471.764 1144.221 2485.398 1144.235 C 2513.034 1144.263 2540.702 1144.557 2568.357 1144.046 C 2579.65 1143.837 2586.684 1143.049 2588.704 1141.225 C 2592.363 1137.92 2596.704 1134.634 2600.28 1131.325 C 2601.531 1130.169 2601.23 1129.021 2594.691 1128.104 C 2590.373 1127.498 2590.615 1126.916 2594.565 1126.224 C 2604.648 1124.458 2609.466 1122.319 2612.535 1120.06 C 2615.506 1117.875 2618.348 1115.68 2620.787 1113.478 C 2623.22 1111.279 2625.847 1109.098 2622.967 1106.82 C 2618.17 1103.028 2605.058 1100.446 2581.298 1099.399 C 2571.787 1098.981 2561.682 1098.711 2551.828 1098.698 C 2499.268 1098.629 2446.702 1098.653 2394.138 1098.665 C 2385.026 1098.668 2380.375 1099.24 2378.56 1100.66 C 2375.587 1102.987 2373.212 1105.334 2370.349 1107.902 M 1781.479 1114.933 C 1787.893 1114.624 1791.298 1113.905 1792.568 1112.903 C 1795.848 1110.315 1799.585 1107.717 1795.807 1105.07 C 1792.809 1102.967 1785.989 1101.272 1773.214 1100.262 C 1759.635 1099.19 1744.888 1098.777 1730.182 1098.727 C 1693.062 1098.601 1655.901 1098.581 1618.785 1098.722 C 1599.163 1098.797 1581.584 1100.018 1567.291 1102.222 C 1553.651 1104.325 1544.918 1106.895 1540.706 1109.786 C 1536.072 1112.965 1531.93 1116.175 1529.113 1119.403 C 1526.745 1122.116 1528.426 1124.803 1540.904 1127.011 C 1541.376 1127.094 1541.397 1127.242 1541.986 1127.54 C 1538.422 1127.54 1535.394 1127.525 1532.373 1127.542 C 1522.581 1127.598 1518.396 1128.157 1516.585 1129.65 C 1515.569 1130.486 1514.343 1131.319 1513.683 1132.162 C 1512.051 1134.251 1510.325 1136.318 1514.012 1138.434 C 1518.624 1141.081 1529.396 1142.685 1545.385 1143.467 C 1557.385 1144.056 1569.784 1144.327 1582.481 1144.306 C 1606.759 1144.268 1631.05 1144.247 1655.325 1144.317 C 1674.546 1144.372 1693.48 1144.076 1712.211 1143.457 C 1727.916 1142.939 1741.519 1141.843 1751.946 1139.818 C 1759.542 1138.342 1764.299 1136.678 1766.702 1134.871 C 1771.652 1131.15 1776.55 1127.421 1780.08 1123.662 C 1782.249 1121.354 1781.823 1119 1773.183 1116.886 C 1768.122 1115.651 1769.32 1115.327 1778.604 1115.09 C 1779.162 1115.076 1779.699 1115.042 1781.479 1114.933 M 1851.816 1144.301 C 1860.606 1144.192 1869.46 1144.152 1878.165 1143.953 C 1886.659 1143.757 1892.858 1143.104 1894.281 1141.582 C 1895.976 1139.771 1898.551 1137.978 1900.664 1136.174 C 1902.571 1134.546 1904.208 1132.91 1906.269 1131.287 C 1907.681 1130.175 1908.696 1130.05 1915.811 1129.946 C 1921.763 1129.858 1927.749 1129.792 1933.724 1129.784 C 1956.817 1129.755 1979.935 1129.907 2002.814 1129.176 C 2020.973 1128.596 2037.137 1127.548 2047.997 1125.022 C 2053.198 1123.813 2056.528 1122.478 2058.471 1121.069 C 2062.084 1118.446 2065.556 1115.816 2068.682 1113.177 C 2071.287 1110.98 2074.611 1108.781 2073.804 1106.525 C 2072.701 1103.441 2063.811 1101.13 2045.143 1099.943 C 2029.882 1098.973 2013.704 1098.671 1997.412 1098.661 C 1946.269 1098.631 1895.124 1098.648 1843.98 1098.659 C 1831.631 1098.661 1827.698 1099.191 1825.483 1101.094 C 1819.75 1106.026 1814.057 1110.957 1808.375 1115.891 C 1798.723 1124.27 1789.108 1132.65 1779.438 1141.028 C 1777.029 1143.115 1782.445 1144.187 1796.123 1144.288 C 1797.835 1144.301 1799.552 1144.291 1801.266 1144.292 C 1817.552 1144.294 1833.838 1144.297 1851.816 1144.301 M 2808.208 1128.819 C 2808.641 1128.559 2809.19 1128.302 2809.491 1128.037 C 2813.606 1124.428 2817.683 1120.815 2821.781 1117.204 C 2823.483 1115.703 2825.581 1115.457 2835.401 1115.412 C 2849.342 1115.35 2863.265 1115.531 2877.236 1115.163 C 2892.029 1114.774 2896.177 1114.312 2898.755 1112.062 C 2902.686 1108.627 2906.581 1105.191 2910.459 1101.757 C 2911.871 1100.504 2906.86 1099.265 2898.879 1099.025 C 2892.476 1098.832 2885.92 1098.663 2879.43 1098.661 C 2810.579 1098.638 2741.731 1098.648 2672.881 1098.658 C 2659.975 1098.66 2656.234 1099.171 2653.935 1101.167 C 2649.565 1104.958 2645.189 1108.751 2640.893 1112.545 C 2640.552 1112.843 2640.467 1113.171 2640.858 1113.467 C 2642.572 1114.755 2647.89 1115.375 2657.904 1115.398 C 2671.329 1115.43 2684.759 1115.413 2698.185 1115.417 C 2700.948 1115.417 2703.71 1115.417 2707.173 1115.417 C 2706.982 1116.044 2707.152 1116.492 2706.666 1116.921 C 2701.478 1121.511 2696.23 1126.097 2690.908 1130.682 C 2686.763 1134.252 2682.446 1137.817 2678.298 1141.388 C 2676.721 1142.745 2680.879 1143.766 2689.452 1144.127 C 2692.16 1144.241 2695.063 1144.28 2697.878 1144.283 C 2718.446 1144.299 2739.018 1144.329 2759.583 1144.282 C 2766.365 1144.267 2773.162 1144.078 2779.887 1143.907 C 2786.006 1143.75 2790.181 1143.159 2792.202 1142.235 C 2793.124 1141.813 2793.826 1141.374 2794.339 1140.935 C 2798.955 1136.975 2803.508 1133.014 2808.208 1128.819 M 1695.459 1163.134 C 1698.386 1161.829 1701.421 1160.53 1704.206 1159.216 C 1706.493 1158.139 1705.943 1157.175 1698.015 1156.617 C 1704.607 1155.869 1704.487 1155.001 1702.12 1154.024 C 1697.07 1151.938 1687.795 1150.599 1674.088 1150.046 C 1655.502 1149.293 1638.285 1149.873 1622.819 1151.58 C 1603.616 1153.7 1594.976 1156.806 1594.154 1160.366 C 1593.016 1165.285 1612.921 1168.277 1642.492 1168.106 C 1665.236 1167.973 1682.859 1166.385 1695.459 1163.134 Z" style="fill: rgba(1, 50, 141, 0);" transform="matrix(1, 0, 0, 1, -1432.932373, -984.000183)"/>
  <path fill="#04060A" opacity="1.000000" stroke="none" d=" M1407.750854,1123.687256 C1403.743774,1145.738892 1399.942261,1166.955933 1395.823975,1188.111084 C1391.390259,1210.886475 1388.693359,1234.032104 1380.916504,1256.100464 C1371.560059,1282.651123 1353.653198,1299.587280 1326.130371,1306.257080 C1306.028931,1311.128174 1285.709595,1314.001343 1264.996704,1313.965576 C1233.008545,1313.910400 1201.020020,1313.842529 1169.032227,1313.945923 C1154.271729,1313.993652 1139.770142,1312.180908 1125.791748,1307.592529 C1106.419800,1301.233643 1093.770874,1288.628174 1088.787231,1268.112183 C1085.609497,1255.030762 1086.579590,1242.268677 1088.776367,1229.571167 C1096.193848,1186.698486 1104.186890,1143.925415 1111.969727,1101.116089 C1118.612427,1064.577271 1125.238647,1028.035278 1131.936401,991.506592 C1133.990112,980.306213 1138.815063,975.935669 1150.243530,975.841553 C1177.565063,975.616638 1204.891113,975.559631 1232.211304,975.835876 C1238.787231,975.902344 1245.427612,977.153442 1251.896118,978.528809 C1261.194946,980.506104 1266.945801,989.565002 1265.156616,998.912598 C1259.048096,1030.825195 1252.640869,1062.681885 1246.748779,1094.633911 C1242.782471,1116.142822 1239.520386,1137.781250 1235.882446,1159.351440 C1234.890381,1165.233643 1233.670044,1171.077026 1232.569092,1176.941040 C1230.955811,1185.533447 1232.771973,1188.026611 1241.304443,1188.308350 C1247.578613,1188.515381 1253.865112,1188.348999 1260.886597,1188.348999 C1263.299438,1175.723999 1265.685181,1163.754639 1267.863159,1151.747681 C1274.206543,1116.777222 1280.465942,1081.791382 1286.760254,1046.812012 C1289.877686,1029.488037 1293.230225,1012.202271 1296.046143,994.829529 C1298.258911,981.177856 1304.808716,975.351135 1317.910767,975.605774 C1343.224731,976.097717 1368.558350,975.490967 1393.878052,975.804016 C1401.788940,975.901855 1409.741699,977.142578 1417.564941,978.497925 C1425.177002,979.816711 1430.255005,985.996765 1429.717896,994.448792 C1429.068604,1004.667664 1427.382202,1014.857239 1425.581787,1024.959229 C1420.521118,1053.357178 1415.162231,1081.702148 1409.946045,1110.072510 C1409.166870,1114.310547 1408.523193,1118.573730 1407.750854,1123.687256 M1331.387695,1284.470093 C1342.760986,1275.472046 1349.770996,1263.579224 1354.039673,1249.948730 C1355.628052,1244.876831 1357.086914,1239.726074 1358.075928,1234.510986 C1363.841309,1204.114380 1369.516968,1173.700195 1375.095215,1143.268555 C1384.033203,1094.508179 1392.891357,1045.733276 1401.693848,996.948242 C1402.142578,994.461243 1401.751587,991.822632 1401.751587,987.533875 C1371.073364,987.584045 1340.959839,987.470398 1309.634766,987.628113 C1296.621338,1059.170044 1283.736938,1130.002441 1270.872803,1200.724121 C1246.743652,1200.724121 1223.627319,1200.724121 1200.052368,1200.724121 C1200.237549,1198.463745 1200.234375,1196.817749 1200.523682,1195.224609 C1205.989380,1165.108032 1211.484985,1134.996948 1216.985229,1104.886719 C1218.728882,1095.341064 1217.963745,1094.231689 1208.469604,1094.202393 C1183.815063,1094.126587 1159.159912,1094.135864 1134.505249,1094.198120 C1125.486084,1094.220947 1125.301880,1094.413452 1123.639038,1103.402222 C1118.434448,1131.535522 1113.074097,1159.642578 1108.196167,1187.832764 C1104.737305,1207.820801 1101.144287,1227.843506 1099.085083,1248.001343 C1096.434692,1273.944458 1109.677612,1291.812988 1134.971313,1297.852417 C1143.660767,1299.927246 1152.704834,1301.448975 1161.605103,1301.545898 C1198.915527,1301.952515 1236.240479,1302.170532 1273.544800,1301.546509 C1293.652100,1301.210205 1313.363037,1297.766479 1331.387695,1284.470093 M1232.350708,1019.564392 C1233.662354,1012.369812 1235.079346,1005.192444 1236.259644,997.976379 C1237.850586,988.249695 1237.367554,987.611206 1227.724976,987.581177 C1203.089722,987.504456 1178.453857,987.517517 1153.818481,987.578613 C1144.784180,987.600952 1144.581665,987.670898 1142.909302,996.641785 C1137.913086,1023.441895 1133.028442,1050.263306 1128.234619,1077.100464 C1126.594482,1086.282227 1127.831177,1087.723999 1137.152100,1087.756104 C1161.787231,1087.841064 1186.423218,1087.835815 1211.058472,1087.756348 C1219.490112,1087.729126 1220.335327,1086.854614 1221.896240,1078.202637 C1225.319336,1059.227051 1228.719360,1040.247192 1232.350708,1019.564392 z" transform="matrix(1, 0, 0, 1, -1432.932373, -984.000183)"/>
  <path fill="#04060A" opacity="1.000000" stroke="none" d=" M2330.466064,1280.479004 C2318.522217,1296.150635 2302.523926,1303.874268 2284.568848,1307.613647 C2263.388672,1312.024292 2241.976318,1314.457764 2220.205811,1314.077271 C2190.883057,1313.564697 2161.542969,1313.726807 2132.213867,1313.988892 C2117.399658,1314.121094 2102.899658,1312.102295 2088.954834,1307.625610 C2065.208252,1300.001953 2052.176025,1284.479004 2050.032959,1255.407349 C2048.696533,1237.277466 2053.483887,1219.720337 2056.522705,1202.061401 C2062.156250,1169.322266 2068.035889,1136.620972 2074.282715,1103.993652 C2078.458496,1082.182495 2082.555420,1060.289185 2088.272461,1038.855347 C2097.401611,1004.631104 2120.366699,984.531677 2155.196289,978.291077 C2163.018311,976.889587 2171.031982,975.931091 2178.964844,975.878113 C2217.627441,975.620056 2256.293457,975.581055 2294.956543,975.791138 C2313.651611,975.892639 2332.159668,978.198425 2349.697754,985.036560 C2372.020020,993.740112 2382.504883,1011.151611 2383.732666,1034.428711 C2384.669189,1052.177124 2380.202637,1069.384888 2377.242920,1086.699341 C2372.269775,1115.791382 2367.080566,1144.848999 2361.669434,1173.862915 C2357.290283,1197.342529 2352.808105,1220.815186 2347.674805,1244.137451 C2344.807129,1257.166138 2340.041260,1269.657104 2330.466064,1280.479004 M2237.000244,987.550110 C2215.015869,987.690796 2192.942383,986.624878 2171.066895,988.241272 C2133.760498,990.998047 2109.808350,1004.834106 2098.265869,1046.245850 C2095.235107,1057.119263 2093.189453,1068.277100 2090.941162,1079.354980 C2089.577393,1086.074341 2090.895752,1087.480469 2097.869141,1087.802002 C2099.863770,1087.893921 2101.866211,1087.819946 2103.864990,1087.819946 C2150.171875,1087.820190 2196.478760,1087.820068 2242.785645,1087.820068 C2246.391602,1087.820068 2249.997559,1087.820068 2254.415039,1087.820068 C2247.415771,1126.280884 2240.598633,1163.739624 2233.839844,1200.878662 C2210.706055,1202.583252 2170.695312,1201.941895 2162.859863,1199.713013 C2166.906738,1177.229004 2170.948242,1154.685547 2175.029053,1132.149170 C2176.569824,1123.639526 2178.274170,1115.159058 2179.772705,1106.642334 C2181.730957,1095.509644 2180.731445,1094.330811 2169.755127,1094.210205 C2169.421875,1094.206543 2169.088867,1094.209595 2168.755615,1094.209595 C2145.435547,1094.209595 2122.115479,1094.187500 2098.795410,1094.219727 C2088.249268,1094.234253 2087.999756,1094.555908 2086.099365,1105.072998 C2079.592773,1141.081909 2072.767578,1177.036255 2066.647705,1213.110596 C2064.262207,1227.171387 2062.277832,1241.485840 2062.162109,1255.701416 C2061.999268,1275.736328 2073.050293,1289.586914 2091.938965,1296.107056 C2104.027588,1300.280029 2116.595703,1301.704346 2129.293213,1301.745972 C2163.606445,1301.858643 2197.932129,1302.298096 2232.228271,1301.523804 C2245.397461,1301.226318 2258.792725,1299.128052 2271.566895,1295.838745 C2292.160156,1290.535889 2306.616455,1277.113403 2314.225586,1257.141113 C2317.523438,1248.484619 2320.217773,1239.458984 2321.940918,1230.364990 C2330.239014,1186.571289 2338.277100,1142.726318 2346.061035,1098.838135 C2349.486816,1079.522705 2352.939453,1060.144897 2354.853516,1040.645508 C2357.337402,1015.342773 2344.963867,998.047668 2320.503418,991.759583 C2310.619873,989.218872 2300.195068,988.125000 2289.964844,987.737366 C2272.998779,987.094299 2255.990723,987.554565 2237.000244,987.550110 M2196.459961,1167.664307 C2195.911865,1171.263184 2195.418457,1174.871460 2194.804443,1178.458984 C2193.607666,1185.451294 2195.524902,1188.781616 2202.517334,1189.409668 C2209.359131,1190.024170 2216.299316,1189.543457 2224.005859,1189.543457 C2229.465820,1159.557739 2234.772217,1130.414673 2240.317627,1099.959595 C2232.571045,1099.959595 2226.324707,1099.869141 2220.082275,1099.980713 C2210.710693,1100.148193 2209.507324,1100.841064 2207.552979,1110.459229 C2203.799072,1128.935791 2200.492920,1147.503418 2196.459961,1167.664307 z" transform="matrix(1, 0, 0, 1, -1432.932373, -984.000183)"/>
  <path fill="#05070A" opacity="1.000000" stroke="none" d=" M2407.628662,1043.420166 C2410.829590,1025.242920 2413.598633,1007.858398 2417.065186,990.614136 C2419.180176,980.092896 2424.604248,975.847534 2435.228516,975.832031 C2496.516113,975.742554 2557.805664,975.561829 2619.089111,976.082092 C2630.576904,976.179626 2642.359375,978.166504 2653.449219,981.270935 C2681.153320,989.026550 2696.440674,1008.157104 2702.032471,1036.252930 C2705.392822,1053.136963 2702.328125,1069.293823 2699.490967,1085.586426 C2696.649414,1101.907349 2693.333984,1118.153687 2689.869873,1134.356445 C2686.291992,1151.090698 2680.673828,1166.946045 2668.917725,1180.030396 C2664.311768,1185.156494 2664.030029,1189.462646 2669.065674,1193.953003 C2676.688721,1200.750488 2677.039307,1209.252930 2675.581055,1217.823853 C2671.412109,1242.327515 2666.350586,1266.678223 2662.084229,1291.166626 C2659.729004,1304.686035 2651.527832,1310.520996 2638.360840,1312.066528 C2606.115967,1315.851196 2573.857178,1313.676880 2541.633789,1313.475952 C2525.736816,1313.376953 2510.071533,1309.230957 2495.378662,1301.768311 C2485.216553,1313.209717 2471.160400,1313.054932 2458.241943,1313.624878 C2433.310059,1314.724609 2408.292969,1313.959351 2383.312256,1313.807007 C2380.047363,1313.787109 2376.686279,1313.164551 2373.545898,1312.229858 C2364.965820,1309.676147 2361.556152,1305.064575 2361.984131,1296.007690 C2362.233887,1290.728516 2363.288818,1285.467285 2364.239746,1280.244873 C2370.426025,1246.271240 2376.717773,1212.316895 2382.905762,1178.343628 C2387.367920,1153.845581 2391.662842,1129.317261 2396.144775,1104.822876 C2399.841064,1084.623535 2403.702881,1064.454346 2407.628662,1043.420166 M2446.807129,1301.784424 C2450.472656,1301.784180 2454.140869,1301.869263 2457.803467,1301.765869 C2465.488525,1301.549072 2466.474365,1300.808838 2467.828125,1293.584717 C2469.973877,1282.136230 2471.960205,1270.657837 2474.019531,1259.193115 C2477.431641,1240.196777 2480.815674,1221.195068 2484.294922,1202.211060 C2484.844482,1199.213257 2484.939209,1195.545654 2490.471191,1195.467407 C2489.885742,1199.506592 2489.440674,1203.071777 2488.844238,1206.611206 C2485.968994,1223.668701 2482.062012,1240.621948 2483.464844,1258.118042 C2485.017578,1277.481934 2494.920166,1290.838013 2513.594238,1296.022583 C2525.020996,1299.195068 2537.080322,1301.118042 2548.927490,1301.529175 C2572.892578,1302.360962 2596.906982,1301.813965 2620.900879,1301.768799 C2631.165283,1301.749512 2631.339355,1301.700928 2633.210449,1291.644775 C2638.141357,1265.145630 2642.943115,1238.622437 2647.699219,1212.091553 C2648.208984,1209.249023 2648.082275,1206.292358 2648.322754,1202.149414 C2626.552246,1200.630859 2605.452637,1202.416504 2584.051270,1199.966064 C2585.364502,1197.436646 2586.916748,1195.454712 2588.926514,1194.714478 C2591.007324,1193.947876 2593.533447,1194.417358 2595.862061,1194.291748 C2625.540527,1192.691650 2645.990479,1178.406738 2656.250000,1150.224487 C2657.727051,1146.166992 2659.235107,1142.060303 2660.089355,1137.846802 C2664.252197,1117.307617 2668.629395,1096.795654 2672.039307,1076.127075 C2673.760010,1065.696167 2674.681152,1054.888672 2674.059814,1044.364014 C2672.495361,1017.855042 2656.898926,994.606628 2626.581299,989.335999 C2620.710205,988.315369 2614.694824,987.650818 2608.744141,987.637207 C2552.425049,987.508728 2496.105713,987.545471 2439.786377,987.583008 C2436.575928,987.585144 2433.366211,988.009521 2430.429443,988.217957 C2429.547852,990.315674 2428.791016,991.488831 2428.560059,992.757629 C2423.317383,1021.566345 2418.094727,1050.378906 2412.964600,1079.207886 C2411.815430,1085.665161 2413.366943,1087.383301 2420.141846,1087.760498 C2422.467285,1087.890015 2424.805908,1087.784180 2427.138672,1087.784180 C2473.127197,1087.784424 2519.115967,1087.784546 2565.104492,1087.784546 C2568.599365,1087.784546 2572.094238,1087.784424 2575.994141,1087.784424 C2574.843506,1095.944946 2569.513428,1093.960815 2565.720947,1093.969971 C2517.399902,1094.087280 2469.078613,1094.035156 2420.757324,1094.058228 C2410.573975,1094.063110 2410.043213,1094.482666 2408.305664,1104.048828 C2397.005371,1166.260376 2385.732178,1228.476685 2374.461426,1290.693359 C2372.713379,1300.343140 2373.820557,1301.724731 2383.869629,1301.760986 C2404.197754,1301.834473 2424.526123,1301.783936 2446.807129,1301.784424 z" transform="matrix(1, 0, 0, 1, -1432.932373, -984.000183)"/>
  <path fill="#05070B" opacity="1.000000" stroke="none" d=" M1720.173828,1096.671143 C1718.817871,1097.168945 1718.191162,1097.425659 1717.540161,1097.530518 C1706.714355,1099.276978 1705.318359,1101.683228 1711.219482,1110.847290 C1721.293091,1126.491577 1721.790161,1143.937744 1719.261597,1161.041992 C1715.145020,1188.889160 1709.434204,1216.522949 1703.661987,1244.093140 C1700.861572,1257.469360 1695.314575,1269.803711 1686.458496,1280.742432 C1674.301514,1295.758423 1658.440796,1303.867432 1640.129517,1307.709229 C1618.289185,1312.291260 1596.211914,1314.488892 1573.801392,1314.079102 C1545.498047,1313.561646 1517.176392,1313.712769 1488.866943,1314.001221 C1474.064697,1314.151978 1459.608643,1312.139526 1445.616577,1307.783569 C1426.974731,1301.980225 1414.413696,1290.106323 1409.036133,1270.486694 C1404.738159,1254.805542 1406.750488,1239.497559 1408.654175,1224.021729 C1409.422852,1217.772339 1410.853027,1211.602417 1412.036987,1205.406738 C1414.149536,1194.351074 1419.027100,1190.194580 1430.444702,1189.790894 C1433.967163,1189.666260 1437.497681,1189.771484 1441.652344,1189.771484 C1440.967773,1187.565796 1440.942993,1186.476440 1440.391235,1185.855835 C1425.842407,1169.494995 1423.883667,1149.583496 1426.643433,1129.484985 C1429.928711,1105.560181 1434.759033,1081.786133 1440.161377,1058.231567 C1445.073486,1036.814209 1455.254272,1017.760803 1471.156006,1002.186707 C1487.824707,985.861145 1508.319824,976.809814 1531.198486,976.256592 C1574.472046,975.210144 1617.802612,975.358459 1661.081909,976.290222 C1678.229370,976.659363 1695.423340,979.717651 1711.255127,987.665955 C1726.151733,995.144836 1734.102661,1007.709106 1737.598633,1023.282776 C1742.003906,1042.907104 1737.646729,1062.145630 1733.820312,1081.331177 C1732.339966,1088.753052 1728.370728,1094.076660 1720.173828,1096.671143 M1560.999756,1301.779663 C1577.302124,1301.208984 1593.703491,1301.577515 1609.886719,1299.874390 C1644.958740,1296.182861 1665.600098,1278.116821 1674.534546,1244.069214 C1678.160156,1230.252441 1681.010986,1216.192261 1683.427002,1202.107788 C1686.632202,1183.422241 1690.315918,1164.684692 1691.527100,1145.823975 C1693.169067,1120.250610 1680.221680,1103.813599 1655.364136,1098.197021 C1644.413574,1095.722778 1632.966309,1094.467407 1621.732666,1094.390259 C1566.740356,1094.012573 1511.743774,1094.218384 1456.748779,1094.218262 C1454.748901,1094.218262 1452.746338,1094.293213 1450.749878,1094.211304 C1446.433960,1094.034180 1443.925903,1095.796875 1443.168945,1100.274048 C1440.393921,1116.689087 1436.860718,1133.043823 1438.068115,1149.833008 C1439.550903,1170.450806 1450.203979,1184.381592 1470.011353,1189.738892 C1480.181152,1192.489502 1490.950439,1193.961792 1501.492065,1194.215210 C1528.141357,1194.856323 1554.815186,1194.463989 1581.479004,1194.536621 C1584.317505,1194.544434 1587.155029,1194.890747 1589.854370,1195.070679 C1590.547485,1198.773926 1590.336548,1201.269165 1586.551880,1201.473389 C1583.892944,1201.617188 1581.221802,1201.555664 1578.556152,1201.555786 C1531.560303,1201.559448 1484.564575,1201.557251 1437.568726,1201.561523 C1434.903076,1201.561768 1432.042969,1201.012451 1429.629883,1201.804688 C1427.482788,1202.509521 1424.419067,1204.532227 1424.180176,1206.300171 C1421.956543,1222.762451 1418.419189,1239.342651 1418.841431,1255.796753 C1419.452393,1279.608521 1431.934326,1292.938354 1455.352417,1298.026123 C1465.687622,1300.271484 1476.424927,1301.387207 1487.009888,1301.615356 C1510.996582,1302.131958 1535.002075,1301.779053 1560.999756,1301.779663 M1493.000122,1087.811279 C1558.932007,1087.811279 1624.863892,1087.811646 1690.795776,1087.810425 C1693.459595,1087.810303 1696.126587,1087.709351 1698.786621,1087.804932 C1702.446167,1087.936157 1704.410522,1085.998901 1704.996948,1082.656616 C1708.158569,1064.635864 1712.164673,1046.606934 1709.774170,1028.185425 C1707.466553,1010.401978 1697.566284,998.100952 1680.307983,992.760864 C1672.431519,990.323730 1664.077515,988.221802 1655.914185,988.123108 C1614.966064,987.627991 1573.987671,987.026123 1533.062988,988.099792 C1505.506348,988.822815 1483.472778,1001.872192 1467.830444,1024.935913 C1456.800537,1041.198853 1450.944702,1059.478882 1447.192383,1078.548706 C1445.598755,1086.647949 1446.430420,1087.696533 1455.037720,1087.779663 C1467.024292,1087.895630 1479.012695,1087.810425 1493.000122,1087.811279 z" transform="matrix(1, 0, 0, 1, -1432.932373, -984.000183)"/>
  <path fill="#05070A" opacity="1.000000" stroke="none" d=" M1801.916138,1313.955811 C1781.941162,1313.932495 1762.952393,1313.909546 1743.963623,1313.885742 C1741.964844,1313.883179 1739.962402,1313.952515 1737.967773,1313.859497 C1722.020142,1313.115356 1715.704956,1305.168579 1718.513794,1289.703491 C1729.788452,1227.627563 1740.998413,1165.539795 1752.252319,1103.460205 C1758.877319,1066.914673 1765.514648,1030.371460 1772.198975,993.836731 C1774.781128,979.723450 1779.368286,975.800415 1793.766846,975.782532 C1853.398315,975.708496 1913.030518,975.580322 1972.661011,975.807251 C1991.656860,975.879517 2010.520142,978.116394 2028.314087,985.303040 C2050.079834,994.093689 2060.445068,1011.214661 2061.731689,1034.065063 C2062.673584,1050.788208 2058.796875,1067.070068 2055.760742,1083.354736 C2052.115479,1102.906372 2048.066406,1122.387817 2043.853271,1141.826416 C2041.589111,1152.273193 2037.706543,1162.157593 2031.641968,1171.118164 C2018.979492,1189.827637 2000.133545,1197.597412 1978.959961,1201.894531 C1952.284180,1207.307983 1925.330322,1206.193481 1898.404053,1206.404175 C1891.437866,1206.458618 1884.458618,1206.953979 1877.517944,1207.598267 C1869.223389,1208.368408 1868.038330,1209.301880 1866.392700,1217.532715 C1863.988281,1229.558960 1862.081055,1241.683960 1859.857666,1253.747559 C1857.394653,1267.110352 1854.392700,1280.389648 1852.414917,1293.821411 C1850.755615,1305.089600 1843.529419,1309.929688 1833.625000,1311.375366 C1823.474854,1312.857056 1813.150513,1313.145386 1801.916138,1313.955811 M1871.000122,987.559326 C1845.341431,987.559509 1819.682617,987.508301 1794.024170,987.589966 C1785.853638,987.615967 1785.401733,988.053650 1784.055664,995.456421 C1778.996094,1023.281799 1773.964478,1051.112427 1768.996582,1078.954224 C1767.798096,1085.671265 1769.170654,1087.325928 1775.882324,1087.749390 C1778.205811,1087.895996 1780.546021,1087.778442 1782.878662,1087.778564 C1828.864014,1087.778931 1874.849487,1087.778809 1920.834839,1087.778809 C1924.425171,1087.778809 1928.015503,1087.778809 1934.076538,1087.778809 C1931.323730,1091.012085 1930.328247,1093.274658 1928.792969,1093.734375 C1926.336792,1094.469849 1923.522217,1094.047607 1920.859253,1094.048096 C1872.874512,1094.055908 1824.889648,1094.042114 1776.904907,1094.062988 C1766.394043,1094.067627 1765.996338,1094.462646 1764.152710,1104.883057 C1762.413696,1114.713135 1760.703125,1124.548340 1758.916016,1134.369629 C1749.383667,1186.751831 1739.806396,1239.125610 1730.310669,1291.514404 C1728.752808,1300.109741 1730.014648,1301.698608 1738.697632,1301.737061 C1763.689209,1301.847778 1788.681885,1301.839355 1813.673584,1301.741699 C1821.665039,1301.710449 1822.506958,1300.823975 1823.965942,1292.735718 C1828.100708,1269.811768 1832.157471,1246.873413 1836.322876,1223.954956 C1838.091797,1214.221924 1840.055420,1204.524292 1841.988281,1194.511353 C1846.151733,1194.511353 1849.462891,1194.515137 1852.773926,1194.510742 C1879.765015,1194.474976 1906.762939,1194.775879 1933.743774,1194.231689 C1944.315796,1194.018555 1954.976440,1192.561646 1965.375366,1190.535034 C1991.055664,1185.529907 2007.329102,1169.797607 2014.118286,1144.696289 C2017.672852,1131.553589 2020.582642,1118.192627 2022.951050,1104.783203 C2026.653809,1083.821167 2030.464478,1062.822144 2032.738892,1041.678345 C2035.576294,1015.299194 2023.174438,997.907043 1997.539917,991.536682 C1987.319214,988.996704 1976.525757,987.903748 1965.968140,987.737976 C1934.985474,987.251587 1903.990479,987.561340 1871.000122,987.559326 z" transform="matrix(1, 0, 0, 1, -1432.932373, -984.000183)"/>
  <path fill="#04060A" opacity="1.000000" stroke="none" d=" M2917.942383,1200.112061 C2912.537354,1230.325073 2907.228516,1259.680542 2901.844971,1289.022461 C2901.248291,1292.274902 2900.429443,1295.519897 2899.354980,1298.645142 C2896.997559,1305.503052 2892.130859,1309.872803 2884.996338,1311.033081 C2877.155029,1312.308472 2869.229004,1313.707275 2861.322266,1313.819214 C2837.344727,1314.158325 2813.358643,1313.943726 2789.376465,1313.826782 C2786.093750,1313.810791 2782.709229,1313.515259 2779.552246,1312.672974 C2769.557373,1310.006348 2764.709473,1302.432129 2766.547119,1292.378540 C2771.383789,1265.924438 2776.417725,1239.506470 2781.250488,1213.051636 C2787.455811,1179.082397 2793.574707,1145.097168 2799.623535,1111.099731 C2800.190186,1107.914673 2799.990967,1104.593384 2800.213867,1099.952759 C2796.176758,1099.952759 2792.955811,1099.957520 2789.734863,1099.952026 C2774.079590,1099.925293 2758.421631,1100.054565 2742.769531,1099.815430 C2731.093262,1099.637207 2724.892578,1095.045166 2722.894531,1085.495361 C2722.437500,1083.310791 2722.538818,1080.883057 2722.934082,1078.665527 C2727.942871,1050.555786 2733.046631,1022.463013 2738.140869,994.368530 C2740.821777,979.583252 2745.182617,975.793213 2760.231445,975.779785 C2840.507080,975.708252 2920.782715,975.634338 3001.057861,975.799561 C3008.625977,975.815125 3016.270996,977.067200 3023.736572,978.496643 C3033.041016,980.278137 3038.883789,989.459351 3037.235840,998.739014 C3032.716064,1024.191895 3028.175781,1049.641235 3023.591064,1075.082397 C3020.584961,1091.762695 3015.750000,1095.182373 2998.501465,1098.068848 C2982.210938,1100.794922 2965.977783,1099.452271 2949.723633,1099.915405 C2938.272461,1100.241699 2935.828369,1102.074585 2933.842529,1113.192871 C2929.063965,1139.948486 2924.311768,1166.708984 2919.512939,1193.460815 C2919.161865,1195.417358 2918.521973,1197.321899 2917.942383,1200.112061 M2763.403076,987.556213 C2759.795166,987.556213 2756.187500,987.556213 2752.487305,987.556213 C2751.480957,990.702942 2750.529053,992.837769 2750.124512,995.071777 C2745.206055,1022.236328 2740.351807,1049.412598 2735.518799,1076.592529 C2733.723145,1086.691284 2734.494141,1087.720947 2744.445312,1087.758179 C2765.097412,1087.835449 2785.750000,1087.763428 2806.402344,1087.803467 C2809.265381,1087.809082 2812.127686,1088.102661 2815.110107,1088.269653 C2815.013916,1089.902832 2815.056152,1090.898926 2814.884277,1091.856689 C2802.971191,1158.322754 2791.042236,1224.786011 2779.110352,1291.248657 C2777.499512,1300.221069 2778.618652,1301.716187 2788.001953,1301.750732 C2812.651367,1301.841675 2837.301270,1301.833618 2861.950684,1301.752686 C2870.396973,1301.724976 2870.723633,1301.366699 2872.234619,1293.052002 C2882.938721,1234.145142 2893.600830,1175.230591 2904.307129,1116.324097 C2906.016357,1106.920288 2907.881592,1097.544678 2909.746094,1087.782227 C2912.492432,1087.782227 2914.466064,1087.782227 2916.439697,1087.782227 C2938.757568,1087.781860 2961.075684,1087.837524 2983.393311,1087.750488 C2991.101318,1087.720459 2992.402588,1086.766846 2993.656250,1079.869019 C2998.711182,1052.049316 3003.673340,1024.212402 3008.547119,996.360291 C3009.904053,988.605652 3009.129883,987.862976 3001.145020,987.572083 C2998.816406,987.487244 2996.482178,987.556335 2994.150391,987.556335 C2917.869873,987.556152 2841.589600,987.556152 2763.403076,987.556213 z" transform="matrix(1, 0, 0, 1, -1432.932373, -984.000183)"/>
  <path opacity="1.000000" stroke="none" d=" M1330.824707,1284.915039 C1313.363037,1297.766479 1293.652100,1301.210205 1273.544800,1301.546509 C1236.240479,1302.170532 1198.915527,1301.952515 1161.605103,1301.545898 C1152.704834,1301.448975 1143.660767,1299.927246 1134.971313,1297.852417 C1109.677612,1291.812988 1096.434692,1273.944458 1099.085083,1248.001343 C1101.144287,1227.843506 1104.737305,1207.820801 1108.196167,1187.832764 C1113.074097,1159.642578 1118.434448,1131.535522 1123.639038,1103.402222 C1125.301880,1094.413452 1125.486084,1094.220947 1134.505249,1094.198120 C1159.159912,1094.135864 1183.815063,1094.126587 1208.469604,1094.202393 C1217.963745,1094.231689 1218.728882,1095.341064 1216.985229,1104.886719 C1211.484985,1134.996948 1205.989380,1165.108032 1200.523682,1195.224609 C1200.234375,1196.817749 1200.237549,1198.463745 1200.052368,1200.724121 C1223.627319,1200.724121 1246.743652,1200.724121 1270.872803,1200.724121 C1283.736938,1130.002441 1296.621338,1059.170044 1309.634766,987.628113 C1340.959839,987.470398 1371.073364,987.584045 1401.751587,987.533875 C1401.751587,991.822632 1402.142578,994.461243 1401.693848,996.948242 C1392.891357,1045.733276 1384.033203,1094.508179 1375.095215,1143.268555 C1369.516968,1173.700195 1363.841309,1204.114380 1358.075928,1234.510986 C1357.086914,1239.726074 1355.628052,1244.876831 1354.039673,1249.948730 C1349.770996,1263.579224 1342.760986,1275.472046 1330.824707,1284.915039 M1391.565186,1028.430176 C1393.608398,1016.509766 1395.651611,1004.589294 1397.747070,992.364197 C1369.026733,992.364197 1341.489136,992.364197 1313.241699,992.364197 C1300.297241,1063.567993 1287.412842,1134.441040 1274.588623,1204.983643 C1258.362305,1206.743896 1202.073242,1206.142212 1194.618164,1204.127686 C1200.850342,1169.324585 1207.092285,1134.466797 1213.439819,1099.019531 C1184.493042,1099.019531 1156.983276,1099.019531 1129.143555,1099.019531 C1128.677124,1101.019043 1128.244385,1102.574707 1127.955811,1104.156738 C1121.986572,1136.875244 1115.805542,1169.557617 1110.175171,1202.334473 C1107.420410,1218.370850 1104.610352,1234.527344 1103.759888,1250.730835 C1102.510376,1274.538330 1113.560547,1288.596313 1136.699585,1293.654297 C1147.668091,1296.051636 1159.097046,1297.113037 1170.343750,1297.315430 C1198.313477,1297.818726 1226.299438,1297.613647 1254.276733,1297.415161 C1265.251221,1297.337280 1276.257446,1296.928101 1287.182739,1295.936035 C1302.306885,1294.562622 1316.623657,1290.394043 1328.816284,1280.792358 C1341.456909,1270.837769 1348.311890,1257.210449 1351.682861,1241.958252 C1356.202393,1221.508423 1360.068237,1200.907104 1363.868164,1180.306885 C1373.099121,1130.264893 1382.129883,1080.185791 1391.565186,1028.430176 z" transform="matrix(1, 0, 0, 1, -1432.932373, -984.000183)" style="fill: rgb(250, 72, 25);"/>
  <path opacity="1.000000" stroke="none" d=" M1232.239746,1020.416748 C1228.719360,1040.247192 1225.319336,1059.227051 1221.896240,1078.202637 C1220.335327,1086.854614 1219.490112,1087.729126 1211.058472,1087.756348 C1186.423218,1087.835815 1161.787231,1087.841064 1137.152100,1087.756104 C1127.831177,1087.723999 1126.594482,1086.282227 1128.234619,1077.100464 C1133.028442,1050.263306 1137.913086,1023.441895 1142.909302,996.641785 C1144.581665,987.670898 1144.784180,987.600952 1153.818481,987.578613 C1178.453857,987.517517 1203.089722,987.504456 1227.724976,987.581177 C1237.367554,987.611206 1237.850586,988.249695 1236.259644,997.976379 C1235.079346,1005.192444 1233.662354,1012.369812 1232.239746,1020.416748 M1222.846313,1047.812378 C1226.140503,1029.558105 1229.434692,1011.303833 1232.840088,992.433533 C1204.046509,992.433533 1176.255615,992.433533 1148.097900,992.433533 C1142.615112,1022.809082 1137.220459,1052.696411 1131.750610,1083.000000 C1160.675293,1083.000000 1188.158081,1083.000000 1216.468384,1083.000000 C1218.496948,1071.614258 1220.468384,1060.549805 1222.846313,1047.812378 z" transform="matrix(1, 0, 0, 1, -1432.932373, -984.000183)" style="fill: rgb(250, 72, 25);"/>
  <path opacity="1.000000" stroke="none" d=" M2238.000488,987.550049 C2255.990723,987.554565 2272.998779,987.094299 2289.964844,987.737366 C2300.195068,988.125000 2310.619873,989.218872 2320.503418,991.759583 C2344.963867,998.047668 2357.337402,1015.342773 2354.853516,1040.645508 C2352.939453,1060.144897 2349.486816,1079.522705 2346.061035,1098.838135 C2338.277100,1142.726318 2330.239014,1186.571289 2321.940918,1230.364990 C2320.217773,1239.458984 2317.523438,1248.484619 2314.225586,1257.141113 C2306.616455,1277.113403 2292.160156,1290.535889 2271.566895,1295.838745 C2258.792725,1299.128052 2245.397461,1301.226318 2232.228271,1301.523804 C2197.932129,1302.298096 2163.606445,1301.858643 2129.293213,1301.745972 C2116.595703,1301.704346 2104.027588,1300.280029 2091.938965,1296.107056 C2073.050293,1289.586914 2061.999268,1275.736328 2062.162109,1255.701416 C2062.277832,1241.485840 2064.262207,1227.171387 2066.647705,1213.110596 C2072.767578,1177.036255 2079.592773,1141.081909 2086.099365,1105.072998 C2087.999756,1094.555908 2088.249268,1094.234253 2098.795410,1094.219727 C2122.115479,1094.187500 2145.435547,1094.209595 2168.755615,1094.209595 C2169.088867,1094.209595 2169.421875,1094.206543 2169.755127,1094.210205 C2180.731445,1094.330811 2181.730957,1095.509644 2179.772705,1106.642334 C2178.274170,1115.159058 2176.569824,1123.639526 2175.029053,1132.149170 C2170.948242,1154.685547 2166.906738,1177.229004 2162.859863,1199.713013 C2170.695312,1201.941895 2210.706055,1202.583252 2233.839844,1200.878662 C2240.598633,1163.739624 2247.415771,1126.280884 2254.415039,1087.820068 C2249.997559,1087.820068 2246.391602,1087.820068 2242.785645,1087.820068 C2196.478760,1087.820068 2150.171875,1087.820190 2103.864990,1087.819946 C2101.866211,1087.819946 2099.863770,1087.893921 2097.869141,1087.802002 C2090.895752,1087.480469 2089.577393,1086.074341 2090.941162,1079.354980 C2093.189453,1068.277100 2095.235107,1057.119263 2098.265869,1046.245850 C2109.808350,1004.834106 2133.760498,990.998047 2171.066895,988.241272 C2192.942383,986.624878 2215.015869,987.690796 2238.000488,987.550049 M2144.990723,1098.510986 C2127.451416,1098.510986 2109.912109,1098.510986 2092.496826,1098.510986 C2091.605469,1101.583862 2090.877686,1103.460693 2090.524658,1105.405640 C2084.397461,1139.134521 2078.141113,1172.841553 2072.307617,1206.621460 C2069.818848,1221.032227 2067.174805,1235.547974 2066.474854,1250.106201 C2065.307861,1274.366211 2076.420898,1288.595093 2100.040039,1293.725830 C2111.018311,1296.110596 2122.458984,1297.136108 2133.714355,1297.325195 C2162.700195,1297.812256 2191.700684,1297.624634 2220.693115,1297.416260 C2231.004150,1297.342163 2241.351074,1296.847412 2251.609863,1295.825684 C2285.918701,1292.408691 2305.452393,1275.725220 2314.552734,1242.487183 C2315.869629,1237.676880 2317.105713,1232.825195 2318.008789,1227.924316 C2326.689453,1180.793823 2335.531494,1133.690918 2343.787598,1086.485596 C2346.761963,1069.479492 2349.470215,1052.264526 2350.144043,1035.060425 C2350.944336,1014.624146 2340.550781,1001.721680 2320.878174,996.314819 C2312.291260,993.954773 2303.217773,992.323608 2294.344971,992.226440 C2255.359375,991.799500 2216.364502,991.839294 2177.378174,992.228638 C2168.820068,992.314148 2160.167236,993.994995 2151.759277,995.852844 C2129.095215,1000.860474 2113.687744,1014.834229 2106.280762,1036.549072 C2101.684326,1050.024414 2099.156738,1064.209351 2095.818848,1078.104126 C2095.468750,1079.562012 2095.921387,1081.212769 2096.056396,1083.841553 C2150.647217,1083.841553 2204.790527,1083.841553 2259.609375,1083.841553 C2252.094482,1125.155029 2244.794434,1165.287231 2237.511230,1205.327759 C2210.364502,1205.327759 2184.485596,1205.327759 2157.558105,1205.327759 C2163.262451,1169.477539 2170.791992,1134.589233 2176.251953,1098.511108 C2165.579346,1098.511108 2156.282471,1098.511108 2144.990723,1098.510986 z" transform="matrix(1, 0, 0, 1, -1432.932373, -984.000183)" style="fill: rgb(250, 72, 25);"/>
  <path opacity="1.000000" stroke="none" d=" M2196.730469,1166.848755 C2200.492920,1147.503418 2203.799072,1128.935791 2207.552979,1110.459229 C2209.507324,1100.841064 2210.710693,1100.148193 2220.082275,1099.980713 C2226.324707,1099.869141 2232.571045,1099.959595 2240.317627,1099.959595 C2234.772217,1130.414673 2229.465820,1159.557739 2224.005859,1189.543457 C2216.299316,1189.543457 2209.359131,1190.024170 2202.517334,1189.409668 C2195.524902,1188.781616 2193.607666,1185.451294 2194.804443,1178.458984 C2195.418457,1174.871460 2195.911865,1171.263184 2196.730469,1166.848755 z" style="fill: rgba(1, 49, 132, 0);" transform="matrix(1, 0, 0, 1, -1432.932373, -984.000183)"/>
  <path opacity="1.000000" stroke="none" d=" M2445.830811,1301.784424 C2424.526123,1301.783936 2404.197754,1301.834473 2383.869629,1301.760986 C2373.820557,1301.724731 2372.713379,1300.343140 2374.461426,1290.693359 C2385.732178,1228.476685 2397.005371,1166.260376 2408.305664,1104.048828 C2410.043213,1094.482666 2410.573975,1094.063110 2420.757324,1094.058228 C2469.078613,1094.035156 2517.399902,1094.087280 2565.720947,1093.969971 C2569.513428,1093.960815 2574.843506,1095.944946 2575.994141,1087.784424 C2572.094238,1087.784424 2568.599365,1087.784546 2565.104492,1087.784546 C2519.115967,1087.784546 2473.127197,1087.784424 2427.138672,1087.784180 C2424.805908,1087.784180 2422.467285,1087.890015 2420.141846,1087.760498 C2413.366943,1087.383301 2411.815430,1085.665161 2412.964600,1079.207886 C2418.094727,1050.378906 2423.317383,1021.566345 2428.560059,992.757629 C2428.791016,991.488831 2429.547852,990.315674 2430.429443,988.217957 C2433.366211,988.009521 2436.575928,987.585144 2439.786377,987.583008 C2496.105713,987.545471 2552.425049,987.508728 2608.744141,987.637207 C2614.694824,987.650818 2620.710205,988.315369 2626.581299,989.335999 C2656.898926,994.606628 2672.495361,1017.855042 2674.059814,1044.364014 C2674.681152,1054.888672 2673.760010,1065.696167 2672.039307,1076.127075 C2668.629395,1096.795654 2664.252197,1117.307617 2660.089355,1137.846802 C2659.235107,1142.060303 2657.727051,1146.166992 2656.250000,1150.224487 C2645.990479,1178.406738 2625.540527,1192.691650 2595.862061,1194.291748 C2593.533447,1194.417358 2591.007324,1193.947876 2588.926514,1194.714478 C2586.916748,1195.454712 2585.364502,1197.436646 2584.051270,1199.966064 C2605.452637,1202.416504 2626.552246,1200.630859 2648.322754,1202.149414 C2648.082275,1206.292358 2648.208984,1209.249023 2647.699219,1212.091553 C2642.943115,1238.622437 2638.141357,1265.145630 2633.210449,1291.644775 C2631.339355,1301.700928 2631.165283,1301.749512 2620.900879,1301.768799 C2596.906982,1301.813965 2572.892578,1302.360962 2548.927490,1301.529175 C2537.080322,1301.118042 2525.020996,1299.195068 2513.594238,1296.022583 C2494.920166,1290.838013 2485.017578,1277.481934 2483.464844,1258.118042 C2482.062012,1240.621948 2485.968994,1223.668701 2488.844238,1206.611206 C2489.440674,1203.071777 2489.885742,1199.506592 2490.471191,1195.467407 C2484.939209,1195.545654 2484.844482,1199.213257 2484.294922,1202.211060 C2480.815674,1221.195068 2477.431641,1240.196777 2474.019531,1259.193115 C2471.960205,1270.657837 2469.973877,1282.136230 2467.828125,1293.584717 C2466.474365,1300.808838 2465.488525,1301.549072 2457.803467,1301.765869 C2454.140869,1301.869263 2450.472656,1301.784180 2445.830811,1301.784424 M2379.599854,1288.382812 C2379.177979,1291.159790 2378.756348,1293.936890 2378.304443,1296.911865 C2406.886963,1296.911865 2434.403320,1296.911865 2462.251709,1296.911865 C2462.899902,1294.230591 2463.546875,1292.031494 2463.956055,1289.789185 C2469.275391,1260.651611 2474.530029,1231.502197 2479.902588,1202.374390 C2480.437744,1199.473877 2480.952637,1196.103638 2482.734619,1194.034912 C2484.402832,1192.098267 2487.762695,1190.644897 2490.341309,1190.699951 C2493.992188,1190.777588 2494.797363,1194.246216 2494.514648,1197.446655 C2494.192871,1201.087402 2493.642822,1204.717163 2493.009521,1208.319580 C2490.243164,1224.060425 2487.000244,1239.744873 2487.731445,1255.871704 C2488.554443,1274.017334 2497.106689,1286.004639 2514.279297,1291.789673 C2520.838135,1293.999146 2527.851318,1295.834839 2534.706543,1296.019897 C2564.668457,1296.828735 2594.648682,1296.978271 2624.622559,1297.308716 C2625.522217,1297.318604 2626.429199,1296.681396 2627.878906,1296.143188 C2633.253906,1266.551880 2638.657471,1236.803711 2644.275391,1205.874268 C2639.906250,1205.874268 2636.325195,1205.875000 2632.743896,1205.873901 C2617.746582,1205.869385 2602.749023,1205.888550 2587.751709,1205.843262 C2583.835938,1205.831421 2580.203369,1205.018677 2579.861816,1200.172607 C2579.548096,1195.717041 2581.488525,1192.195190 2585.848145,1190.899902 C2588.652832,1190.066406 2591.754150,1190.144409 2594.731445,1189.992188 C2624.604248,1188.464966 2642.890869,1174.873413 2652.930664,1146.591919 C2654.152832,1143.148926 2655.306885,1139.641479 2656.034668,1136.070435 C2659.488525,1119.121216 2663.203369,1102.208130 2665.996826,1085.146606 C2668.032227,1072.715454 2670.055176,1060.051758 2669.845703,1047.529297 C2669.339844,1017.293335 2651.552979,997.569702 2621.948975,992.757690 C2617.372070,992.013794 2612.652344,991.921387 2607.998291,991.916687 C2552.341064,991.860229 2496.683594,991.867371 2441.026367,991.906982 C2438.476318,991.908813 2435.926758,992.375061 2433.027832,992.659302 C2427.607910,1022.882507 2422.285400,1052.561890 2416.738770,1083.492188 C2421.744873,1083.492188 2425.328125,1083.492188 2428.911377,1083.492188 C2474.237061,1083.492188 2519.562988,1083.491943 2564.888672,1083.493530 C2567.554932,1083.493530 2570.221191,1083.494873 2572.887207,1083.521362 C2576.416260,1083.556519 2579.813965,1084.017334 2580.164307,1088.486450 C2580.512939,1092.935059 2578.714600,1096.581421 2574.271973,1097.738647 C2571.123047,1098.558716 2567.670898,1098.366211 2564.354248,1098.368652 C2518.028564,1098.402344 2471.703125,1098.391602 2425.377441,1098.391846 C2421.774170,1098.391846 2418.170654,1098.391968 2414.248047,1098.391968 C2413.398926,1102.417114 2412.642578,1105.635132 2412.048340,1108.882812 C2409.051758,1125.252686 2406.092285,1141.629517 2403.129639,1158.005493 C2395.367676,1200.906738 2387.610840,1243.808960 2379.599854,1288.382812 z" transform="matrix(1, 0, 0, 1, -1432.932373, -984.000183)" style="fill: rgb(250, 72, 25);"/>
  <path opacity="1.000000" stroke="none" d=" M1559.999756,1301.779663 C1535.002075,1301.779053 1510.996582,1302.131958 1487.009888,1301.615356 C1476.424927,1301.387207 1465.687622,1300.271484 1455.352417,1298.026123 C1431.934326,1292.938354 1419.452393,1279.608521 1418.841431,1255.796753 C1418.419189,1239.342651 1421.956543,1222.762451 1424.180176,1206.300171 C1424.419067,1204.532227 1427.482788,1202.509521 1429.629883,1201.804688 C1432.042969,1201.012451 1434.903076,1201.561768 1437.568726,1201.561523 C1484.564575,1201.557251 1531.560303,1201.559448 1578.556152,1201.555786 C1581.221802,1201.555664 1583.892944,1201.617188 1586.551880,1201.473389 C1590.336548,1201.269165 1590.547485,1198.773926 1589.854370,1195.070679 C1587.155029,1194.890747 1584.317505,1194.544434 1581.479004,1194.536621 C1554.815186,1194.463989 1528.141357,1194.856323 1501.492065,1194.215210 C1490.950439,1193.961792 1480.181152,1192.489502 1470.011353,1189.738892 C1450.203979,1184.381592 1439.550903,1170.450806 1438.068115,1149.833008 C1436.860718,1133.043823 1440.393921,1116.689087 1443.168945,1100.274048 C1443.925903,1095.796875 1446.433960,1094.034180 1450.749878,1094.211304 C1452.746338,1094.293213 1454.748901,1094.218262 1456.748779,1094.218262 C1511.743774,1094.218384 1566.740356,1094.012573 1621.732666,1094.390259 C1632.966309,1094.467407 1644.413574,1095.722778 1655.364136,1098.197021 C1680.221680,1103.813599 1693.169067,1120.250610 1691.527100,1145.823975 C1690.315918,1164.684692 1686.632202,1183.422241 1683.427002,1202.107788 C1681.010986,1216.192261 1678.160156,1230.252441 1674.534546,1244.069214 C1665.600098,1278.116821 1644.958740,1296.182861 1609.886719,1299.874390 C1593.703491,1301.577515 1577.302124,1301.208984 1559.999756,1301.779663 M1552.999756,1190.157349 C1559.997925,1190.157349 1566.996582,1190.112793 1573.994263,1190.169800 C1581.139893,1190.228027 1588.284668,1190.385864 1596.305054,1190.514160 C1595.135498,1196.312378 1594.241211,1200.745850 1593.194702,1205.934082 C1538.055664,1205.934082 1483.526123,1205.934082 1427.784424,1205.934082 C1425.979980,1221.482300 1422.832520,1236.285889 1422.897217,1251.075562 C1422.983521,1270.802856 1428.223022,1287.877075 1457.538330,1294.023193 C1468.211914,1296.260986 1479.313232,1297.153198 1490.242065,1297.341919 C1516.894287,1297.802246 1543.560913,1297.626831 1570.219604,1297.430298 C1581.866211,1297.344482 1593.540161,1296.982910 1605.145630,1296.050293 C1641.518799,1293.127441 1662.700073,1276.362671 1670.743042,1240.985352 C1677.666992,1210.530273 1683.475098,1179.643311 1686.925171,1148.630127 C1690.007202,1120.927368 1676.583130,1107.484863 1654.270020,1102.457886 C1642.680664,1099.847168 1630.533203,1098.762939 1618.625732,1098.676392 C1565.308105,1098.288574 1511.986084,1098.507446 1458.665649,1098.507324 C1455.370972,1098.507324 1452.076294,1098.507324 1448.222168,1098.507324 C1444.715942,1116.382568 1440.795532,1133.637573 1442.654785,1151.387085 C1444.554199,1169.521118 1454.530518,1181.702026 1472.461182,1185.890625 C1482.429688,1188.219116 1492.783325,1189.514771 1503.018921,1189.942261 C1518.987793,1190.609497 1535.003906,1190.143433 1552.999756,1190.157349 z" transform="matrix(1, 0, 0, 1, -1432.932373, -984.000183)" style="fill: rgb(250, 72, 25);"/>
  <path opacity="1.000000" stroke="none" d=" M1492.000244,1087.811279 C1479.012695,1087.810425 1467.024292,1087.895630 1455.037720,1087.779663 C1446.430420,1087.696533 1445.598755,1086.647949 1447.192383,1078.548706 C1450.944702,1059.478882 1456.800537,1041.198853 1467.830444,1024.935913 C1483.472778,1001.872192 1505.506348,988.822815 1533.062988,988.099792 C1573.987671,987.026123 1614.966064,987.627991 1655.914185,988.123108 C1664.077515,988.221802 1672.431519,990.323730 1680.307983,992.760864 C1697.566284,998.100952 1707.466553,1010.401978 1709.774170,1028.185425 C1712.164673,1046.606934 1708.158569,1064.635864 1704.996948,1082.656616 C1704.410522,1085.998901 1702.446167,1087.936157 1698.786621,1087.804932 C1696.126587,1087.709351 1693.459595,1087.810303 1690.795776,1087.810425 C1624.863892,1087.811646 1558.932007,1087.811279 1492.000244,1087.811279 M1505.991211,998.538269 C1469.936035,1014.864624 1458.203003,1046.816650 1450.712891,1082.966064 C1534.572510,1082.966064 1617.030029,1082.966064 1700.280029,1082.966064 C1703.587891,1066.350952 1706.910767,1049.788208 1705.865723,1032.702759 C1704.717041,1013.921814 1695.229736,1001.233643 1677.024414,996.425659 C1666.840942,993.736206 1656.072754,992.239380 1645.540039,992.081421 C1610.571533,991.556763 1575.590332,991.880920 1540.614014,991.883301 C1529.180420,991.884094 1518.096680,993.785950 1505.991211,998.538269 z" transform="matrix(1, 0, 0, 1, -1432.932373, -984.000183)" style="fill: rgb(250, 72, 25);"/>
  <path opacity="1.000000" stroke="none" d=" M1872.000244,987.559326 C1903.990479,987.561340 1934.985474,987.251587 1965.968140,987.737976 C1976.525757,987.903748 1987.319214,988.996704 1997.539917,991.536682 C2023.174438,997.907043 2035.576294,1015.299194 2032.738892,1041.678345 C2030.464478,1062.822144 2026.653809,1083.821167 2022.951050,1104.783203 C2020.582642,1118.192627 2017.672852,1131.553589 2014.118286,1144.696289 C2007.329102,1169.797607 1991.055664,1185.529907 1965.375366,1190.535034 C1954.976440,1192.561646 1944.315796,1194.018555 1933.743774,1194.231689 C1906.762939,1194.775879 1879.765015,1194.474976 1852.773926,1194.510742 C1849.462891,1194.515137 1846.151733,1194.511353 1841.988281,1194.511353 C1840.055420,1204.524292 1838.091797,1214.221924 1836.322876,1223.954956 C1832.157471,1246.873413 1828.100708,1269.811768 1823.965942,1292.735718 C1822.506958,1300.823975 1821.665039,1301.710449 1813.673584,1301.741699 C1788.681885,1301.839355 1763.689209,1301.847778 1738.697632,1301.737061 C1730.014648,1301.698608 1728.752808,1300.109741 1730.310669,1291.514404 C1739.806396,1239.125610 1749.383667,1186.751831 1758.916016,1134.369629 C1760.703125,1124.548340 1762.413696,1114.713135 1764.152710,1104.883057 C1765.996338,1094.462646 1766.394043,1094.067627 1776.904907,1094.062988 C1824.889648,1094.042114 1872.874512,1094.055908 1920.859253,1094.048096 C1923.522217,1094.047607 1926.336792,1094.469849 1928.792969,1093.734375 C1930.328247,1093.274658 1931.323730,1091.012085 1934.076538,1087.778809 C1928.015503,1087.778809 1924.425171,1087.778809 1920.834839,1087.778809 C1874.849487,1087.778809 1828.864014,1087.778931 1782.878662,1087.778564 C1780.546021,1087.778442 1778.205811,1087.895996 1775.882324,1087.749390 C1769.170654,1087.325928 1767.798096,1085.671265 1768.996582,1078.954224 C1773.964478,1051.112427 1778.996094,1023.281799 1784.055664,995.456421 C1785.401733,988.053650 1785.853638,987.615967 1794.024170,987.589966 C1819.682617,987.508301 1845.341431,987.559509 1872.000244,987.559326 M1785.233154,1098.389038 C1780.316528,1098.389038 1775.399780,1098.389038 1769.914673,1098.389038 C1757.836304,1164.965942 1745.916626,1230.667358 1733.916382,1296.812744 C1762.603882,1296.812744 1790.362671,1296.812744 1818.648193,1296.812744 C1825.200439,1261.058594 1831.650513,1225.861572 1838.192993,1190.160156 C1842.474976,1190.160156 1845.766968,1190.160400 1849.059082,1190.160034 C1875.044189,1190.156738 1901.031982,1190.361328 1927.013306,1190.046753 C1937.299194,1189.922363 1947.655518,1189.233154 1957.833252,1187.776733 C1985.234375,1183.856201 2003.514526,1169.075562 2010.559570,1141.663696 C2011.055908,1139.732422 2011.705688,1137.833740 2012.091797,1135.881958 C2016.029663,1115.977905 2020.349487,1096.136230 2023.691284,1076.131714 C2025.987061,1062.387695 2027.953735,1048.432373 2028.196045,1034.538940 C2028.543579,1014.612122 2018.559082,1001.590759 1999.348511,996.494446 C1988.853027,993.710083 1977.725952,992.160889 1966.868408,992.078979 C1910.237305,991.652039 1853.601440,991.865051 1796.967163,991.904175 C1794.420410,991.905945 1791.874023,992.380615 1789.014282,992.666260 C1783.584717,1022.895874 1778.255859,1052.564697 1772.699585,1083.499756 C1828.265991,1083.499756 1882.410034,1083.499756 1937.492310,1083.499756 C1936.499756,1089.089355 1935.721313,1093.472168 1934.848145,1098.389282 C1885.030273,1098.389282 1836.099854,1098.389282 1785.233154,1098.389038 z" transform="matrix(1, 0, 0, 1, -1432.932373, -984.000183)" style="fill: rgb(250, 72, 25);"/>
  <path opacity="1.000000" stroke="none" d=" M2764.355957,987.556152 C2841.589600,987.556152 2917.869873,987.556152 2994.150391,987.556335 C2996.482178,987.556335 2998.816406,987.487244 3001.145020,987.572083 C3009.129883,987.862976 3009.904053,988.605652 3008.547119,996.360291 C3003.673340,1024.212402 2998.711182,1052.049316 2993.656250,1079.869019 C2992.402588,1086.766846 2991.101318,1087.720459 2983.393311,1087.750488 C2961.075684,1087.837524 2938.757568,1087.781860 2916.439697,1087.782227 C2914.466064,1087.782227 2912.492432,1087.782227 2909.746094,1087.782227 C2907.881592,1097.544678 2906.016357,1106.920288 2904.307129,1116.324097 C2893.600830,1175.230591 2882.938721,1234.145142 2872.234619,1293.052002 C2870.723633,1301.366699 2870.396973,1301.724976 2861.950684,1301.752686 C2837.301270,1301.833618 2812.651367,1301.841675 2788.001953,1301.750732 C2778.618652,1301.716187 2777.499512,1300.221069 2779.110352,1291.248657 C2791.042236,1224.786011 2802.971191,1158.322754 2814.884277,1091.856689 C2815.056152,1090.898926 2815.013916,1089.902832 2815.110107,1088.269653 C2812.127686,1088.102661 2809.265381,1087.809082 2806.402344,1087.803467 C2785.750000,1087.763428 2765.097412,1087.835449 2744.445312,1087.758179 C2734.494141,1087.720947 2733.723145,1086.691284 2735.518799,1076.592529 C2740.351807,1049.412598 2745.206055,1022.236328 2750.124512,995.071777 C2750.529053,992.837769 2751.480957,990.702942 2752.487305,987.556213 C2756.187500,987.556213 2759.795166,987.556213 2764.355957,987.556152 M2795.865967,1222.962891 C2791.473145,1247.410889 2787.080078,1271.858887 2782.569580,1296.961670 C2811.488525,1296.961670 2838.993652,1296.961670 2867.101318,1296.961670 C2880.064453,1225.688354 2892.953857,1154.819946 2905.953613,1083.344971 C2933.932129,1083.344971 2960.807129,1083.344971 2988.470947,1083.344971 C2993.995605,1052.755981 2999.398193,1022.842834 3004.811523,992.870544 C2989.115234,990.823669 2762.187256,991.513123 2754.833740,993.573608 C2749.552002,1023.046997 2744.237305,1052.704224 2738.689941,1083.660522 C2766.766602,1083.660522 2793.278320,1083.660522 2820.836426,1083.660522 C2812.447754,1130.337646 2804.277832,1175.797485 2795.865967,1222.962891 z" transform="matrix(1, 0, 0, 1, -1432.932373, -984.000183)" style="fill: rgb(250, 72, 25);"/>
  <path opacity="1.000000" stroke="none" d=" M1391.403320,1029.275879 C1382.129883,1080.185791 1373.099121,1130.264893 1363.868164,1180.306885 C1360.068237,1200.907104 1356.202393,1221.508423 1351.682861,1241.958252 C1348.311890,1257.210449 1341.456909,1270.837769 1328.816284,1280.792358 C1316.623657,1290.394043 1302.306885,1294.562622 1287.182739,1295.936035 C1276.257446,1296.928101 1265.251221,1297.337280 1254.276733,1297.415161 C1226.299438,1297.613647 1198.313477,1297.818726 1170.343750,1297.315430 C1159.097046,1297.113037 1147.668091,1296.051636 1136.699585,1293.654297 C1113.560547,1288.596313 1102.510376,1274.538330 1103.759888,1250.730835 C1104.610352,1234.527344 1107.420410,1218.370850 1110.175171,1202.334473 C1115.805542,1169.557617 1121.986572,1136.875244 1127.955811,1104.156738 C1128.244385,1102.574707 1128.677124,1101.019043 1129.143555,1099.019531 C1156.983276,1099.019531 1184.493042,1099.019531 1213.439819,1099.019531 C1207.092285,1134.466797 1200.850342,1169.324585 1194.618164,1204.127686 C1202.073242,1206.142212 1258.362305,1206.743896 1274.588623,1204.983643 C1287.412842,1134.441040 1300.297241,1063.567993 1313.241699,992.364197 C1341.489136,992.364197 1369.026733,992.364197 1397.747070,992.364197 C1395.651611,1004.589294 1393.608398,1016.509766 1391.403320,1029.275879 z" transform="matrix(1, 0, 0, 1, -1432.932373, -984.000183)" style="fill: rgb(250, 72, 25);"/>
  <path opacity="1.000000" stroke="none" d=" M1222.643066,1048.648926 C1220.468384,1060.549805 1218.496948,1071.614258 1216.468384,1083.000000 C1188.158081,1083.000000 1160.675293,1083.000000 1131.750610,1083.000000 C1137.220459,1052.696411 1142.615112,1022.809082 1148.097900,992.433533 C1176.255615,992.433533 1204.046509,992.433533 1232.840088,992.433533 C1229.434692,1011.303833 1226.140503,1029.558105 1222.643066,1048.648926 z" transform="matrix(1, 0, 0, 1, -1432.932373, -984.000183)" style="fill: rgb(250, 72, 25);"/>
  <path fill="#FA4718" opacity="1.000000" stroke="none" d=" M2145.988281,1098.510986 C2156.282471,1098.511108 2165.579346,1098.511108 2176.251953,1098.511108 C2170.791992,1134.589233 2163.262451,1169.477539 2157.558105,1205.327759 C2184.485596,1205.327759 2210.364502,1205.327759 2237.511230,1205.327759 C2244.794434,1165.287231 2252.094482,1125.155029 2259.609375,1083.841553 C2204.790527,1083.841553 2150.647217,1083.841553 2096.056396,1083.841553 C2095.921387,1081.212769 2095.468750,1079.562012 2095.818848,1078.104126 C2099.156738,1064.209351 2101.684326,1050.024414 2106.280762,1036.549072 C2113.687744,1014.834229 2129.095215,1000.860474 2151.759277,995.852844 C2160.167236,993.994995 2168.820068,992.314148 2177.378174,992.228638 C2216.364502,991.839294 2255.359375,991.799500 2294.344971,992.226440 C2303.217773,992.323608 2312.291260,993.954773 2320.878174,996.314819 C2340.550781,1001.721680 2350.944336,1014.624146 2350.144043,1035.060425 C2349.470215,1052.264526 2346.761963,1069.479492 2343.787598,1086.485596 C2335.531494,1133.690918 2326.689453,1180.793823 2318.008789,1227.924316 C2317.105713,1232.825195 2315.869629,1237.676880 2314.552734,1242.487183 C2305.452393,1275.725220 2285.918701,1292.408691 2251.609863,1295.825684 C2241.351074,1296.847412 2231.004150,1297.342163 2220.693115,1297.416260 C2191.700684,1297.624634 2162.700195,1297.812256 2133.714355,1297.325195 C2122.458984,1297.136108 2111.018311,1296.110596 2100.040039,1293.725830 C2076.420898,1288.595093 2065.307861,1274.366211 2066.474854,1250.106201 C2067.174805,1235.547974 2069.818848,1221.032227 2072.307617,1206.621460 C2078.141113,1172.841553 2084.397461,1139.134521 2090.524658,1105.405640 C2090.877686,1103.460693 2091.605469,1101.583862 2092.496826,1098.510986 C2109.912109,1098.510986 2127.451416,1098.510986 2145.988281,1098.510986 z" transform="matrix(1, 0, 0, 1, -1432.932373, -984.000183)"/>
  <path fill="#FA4718" opacity="1.000000" stroke="none" d=" M2379.726074,1287.546875 C2387.610840,1243.808960 2395.367676,1200.906738 2403.129639,1158.005493 C2406.092285,1141.629517 2409.051758,1125.252686 2412.048340,1108.882812 C2412.642578,1105.635132 2413.398926,1102.417114 2414.248047,1098.391968 C2418.170654,1098.391968 2421.774170,1098.391846 2425.377441,1098.391846 C2471.703125,1098.391602 2518.028564,1098.402344 2564.354248,1098.368652 C2567.670898,1098.366211 2571.123047,1098.558716 2574.271973,1097.738647 C2578.714600,1096.581421 2580.512939,1092.935059 2580.164307,1088.486450 C2579.813965,1084.017334 2576.416260,1083.556519 2572.887207,1083.521362 C2570.221191,1083.494873 2567.554932,1083.493530 2564.888672,1083.493530 C2519.562988,1083.491943 2474.237061,1083.492188 2428.911377,1083.492188 C2425.328125,1083.492188 2421.744873,1083.492188 2416.738770,1083.492188 C2422.285400,1052.561890 2427.607910,1022.882507 2433.027832,992.659302 C2435.926758,992.375061 2438.476318,991.908813 2441.026367,991.906982 C2496.683594,991.867371 2552.341064,991.860229 2607.998291,991.916687 C2612.652344,991.921387 2617.372070,992.013794 2621.948975,992.757690 C2651.552979,997.569702 2669.339844,1017.293335 2669.845703,1047.529297 C2670.055176,1060.051758 2668.032227,1072.715454 2665.996826,1085.146606 C2663.203369,1102.208130 2659.488525,1119.121216 2656.034668,1136.070435 C2655.306885,1139.641479 2654.152832,1143.148926 2652.930664,1146.591919 C2642.890869,1174.873413 2624.604248,1188.464966 2594.731445,1189.992188 C2591.754150,1190.144409 2588.652832,1190.066406 2585.848145,1190.899902 C2581.488525,1192.195190 2579.548096,1195.717041 2579.861816,1200.172607 C2580.203369,1205.018677 2583.835938,1205.831421 2587.751709,1205.843262 C2602.749023,1205.888550 2617.746582,1205.869385 2632.743896,1205.873901 C2636.325195,1205.875000 2639.906250,1205.874268 2644.275391,1205.874268 C2638.657471,1236.803711 2633.253906,1266.551880 2627.878906,1296.143188 C2626.429199,1296.681396 2625.522217,1297.318604 2624.622559,1297.308716 C2594.648682,1296.978271 2564.668457,1296.828735 2534.706543,1296.019897 C2527.851318,1295.834839 2520.838135,1293.999146 2514.279297,1291.789673 C2497.106689,1286.004639 2488.554443,1274.017334 2487.731445,1255.871704 C2487.000244,1239.744873 2490.243164,1224.060425 2493.009521,1208.319580 C2493.642822,1204.717163 2494.192871,1201.087402 2494.514648,1197.446655 C2494.797363,1194.246216 2493.992188,1190.777588 2490.341309,1190.699951 C2487.762695,1190.644897 2484.402832,1192.098267 2482.734619,1194.034912 C2480.952637,1196.103638 2480.437744,1199.473877 2479.902588,1202.374390 C2474.530029,1231.502197 2469.275391,1260.651611 2463.956055,1289.789185 C2463.546875,1292.031494 2462.899902,1294.230591 2462.251709,1296.911865 C2434.403320,1296.911865 2406.886963,1296.911865 2378.304443,1296.911865 C2378.756348,1293.936890 2379.177979,1291.159790 2379.726074,1287.546875 z" transform="matrix(1, 0, 0, 1, -1432.932373, -984.000183)"/>
  <path fill="#FA4718" opacity="1.000000" stroke="none" d=" M1551.999878,1190.157471 C1535.003906,1190.143433 1518.987793,1190.609497 1503.018921,1189.942261 C1492.783325,1189.514771 1482.429688,1188.219116 1472.461182,1185.890625 C1454.530518,1181.702026 1444.554199,1169.521118 1442.654785,1151.387085 C1440.795532,1133.637573 1444.715942,1116.382568 1448.222168,1098.507324 C1452.076294,1098.507324 1455.370972,1098.507324 1458.665649,1098.507324 C1511.986084,1098.507446 1565.308105,1098.288574 1618.625732,1098.676392 C1630.533203,1098.762939 1642.680664,1099.847168 1654.270020,1102.457886 C1676.583130,1107.484863 1690.007202,1120.927368 1686.925171,1148.630127 C1683.475098,1179.643311 1677.666992,1210.530273 1670.743042,1240.985352 C1662.700073,1276.362671 1641.518799,1293.127441 1605.145630,1296.050293 C1593.540161,1296.982910 1581.866211,1297.344482 1570.219604,1297.430298 C1543.560913,1297.626831 1516.894287,1297.802246 1490.242065,1297.341919 C1479.313232,1297.153198 1468.211914,1296.260986 1457.538330,1294.023193 C1428.223022,1287.877075 1422.983521,1270.802856 1422.897217,1251.075562 C1422.832520,1236.285889 1425.979980,1221.482300 1427.784424,1205.934082 C1483.526123,1205.934082 1538.055664,1205.934082 1593.194702,1205.934082 C1594.241211,1200.745850 1595.135498,1196.312378 1596.305054,1190.514160 C1588.284668,1190.385864 1581.139893,1190.228027 1573.994263,1190.169800 C1566.996582,1190.112793 1559.997925,1190.157349 1551.999878,1190.157471 z" transform="matrix(1, 0, 0, 1, -1432.932373, -984.000183)"/>
  <path opacity="1.000000" stroke="none" d=" M1506.718506,998.279724 C1518.096680,993.785950 1529.180420,991.884094 1540.614014,991.883301 C1575.590332,991.880920 1610.571533,991.556763 1645.540039,992.081421 C1656.072754,992.239380 1666.840942,993.736206 1677.024414,996.425659 C1695.229736,1001.233643 1704.717041,1013.921814 1705.865723,1032.702759 C1706.910767,1049.788208 1703.587891,1066.350952 1700.280029,1082.966064 C1617.030029,1082.966064 1534.572510,1082.966064 1450.712891,1082.966064 C1458.203003,1046.816650 1469.936035,1014.864624 1506.718506,998.279724 z" transform="matrix(1, 0, 0, 1, -1432.932373, -984.000183)" style="fill: rgb(250, 72, 25);"/>
  <path fill="#FA4718" opacity="1.000000" stroke="none" d=" M1786.201294,1098.389160 C1836.099854,1098.389282 1885.030273,1098.389282 1934.848145,1098.389282 C1935.721313,1093.472168 1936.499756,1089.089355 1937.492310,1083.499756 C1882.410034,1083.499756 1828.265991,1083.499756 1772.699585,1083.499756 C1778.255859,1052.564697 1783.584717,1022.895874 1789.014282,992.666260 C1791.874023,992.380615 1794.420410,991.905945 1796.967163,991.904175 C1853.601440,991.865051 1910.237305,991.652039 1966.868408,992.078979 C1977.725952,992.160889 1988.853027,993.710083 1999.348511,996.494446 C2018.559082,1001.590759 2028.543579,1014.612122 2028.196045,1034.538940 C2027.953735,1048.432373 2025.987061,1062.387695 2023.691284,1076.131714 C2020.349487,1096.136230 2016.029663,1115.977905 2012.091797,1135.881958 C2011.705688,1137.833740 2011.055908,1139.732422 2010.559570,1141.663696 C2003.514526,1169.075562 1985.234375,1183.856201 1957.833252,1187.776733 C1947.655518,1189.233154 1937.299194,1189.922363 1927.013306,1190.046753 C1901.031982,1190.361328 1875.044189,1190.156738 1849.059082,1190.160034 C1845.766968,1190.160400 1842.474976,1190.160156 1838.192993,1190.160156 C1831.650513,1225.861572 1825.200439,1261.058594 1818.648193,1296.812744 C1790.362671,1296.812744 1762.603882,1296.812744 1733.916382,1296.812744 C1745.916626,1230.667358 1757.836304,1164.965942 1769.914673,1098.389038 C1775.399780,1098.389038 1780.316528,1098.389038 1786.201294,1098.389160 z" transform="matrix(1, 0, 0, 1, -1432.932373, -984.000183)"/>
  <path fill="#FA4718" opacity="1.000000" stroke="none" d=" M2795.986816,1222.110107 C2804.277832,1175.797485 2812.447754,1130.337646 2820.836426,1083.660522 C2793.278320,1083.660522 2766.766602,1083.660522 2738.689941,1083.660522 C2744.237305,1052.704224 2749.552002,1023.046997 2754.833740,993.573608 C2762.187256,991.513123 2989.115234,990.823669 3004.811523,992.870544 C2999.398193,1022.842834 2993.995605,1052.755981 2988.470947,1083.344971 C2960.807129,1083.344971 2933.932129,1083.344971 2905.953613,1083.344971 C2892.953857,1154.819946 2880.064453,1225.688354 2867.101318,1296.961670 C2838.993652,1296.961670 2811.488525,1296.961670 2782.569580,1296.961670 C2787.080078,1271.858887 2791.473145,1247.410889 2795.986816,1222.110107 z" transform="matrix(1, 0, 0, 1, -1432.932373, -984.000183)"/>
</svg>