<svg width="500" height="500" xmlns="http://www.w3.org/2000/svg">

 <g>
  <title>Layer 1</title>
  <path id="svg_3" d="m390.00025,207.69005c-4.00708,22.05163 -7.80859,43.26867 -11.92687,64.42382c-4.43372,22.7754 -7.13062,45.92102 -14.90748,67.98938c-9.35644,26.55066 -27.2633,43.48682 -54.78613,50.15662c-20.10144,4.87109 -40.42077,7.74426 -61.13367,7.7085c-31.98816,-0.05518 -63.97668,-0.12305 -95.96447,-0.01966c-14.7605,0.04773 -29.26209,-1.76501 -43.24048,-6.35339c-19.37195,-6.35889 -32.02088,-18.96436 -37.00452,-39.48035c-3.17773,-13.08142 -2.20764,-25.8435 -0.01086,-38.54101c7.41748,-42.87268 15.41052,-85.64576 23.19336,-128.45508c6.6427,-36.53882 13.26892,-73.08081 19.96667,-109.6095c2.05371,-11.20038 6.87866,-15.57092 18.30713,-15.66504c27.32153,-0.22491 54.64758,-0.28192 81.96777,-0.00567c6.57593,0.06646 13.21631,1.31756 19.68482,2.69293c9.29883,1.97729 15.04968,11.03619 13.2605,20.38379c-6.10852,31.91259 -12.51575,63.76928 -18.40784,95.72131c-3.96631,21.50891 -7.22839,43.14734 -10.86633,64.71753c-0.99207,5.8822 -2.21241,11.72559 -3.31336,17.5896c-1.61328,8.59241 0.20288,11.08557 8.73535,11.36731c6.27417,0.20703 12.56067,0.04065 19.58216,0.04065c2.41284,-12.625 4.79858,-24.59436 6.97656,-36.60132c6.34338,-34.97046 12.60278,-69.9563 18.89709,-104.93567c3.11744,-17.32397 6.46998,-34.60974 9.28589,-51.98248c2.21277,-13.65167 8.76258,-19.4784 21.86463,-19.22376c25.31396,0.49195 50.64758,-0.1148 75.96728,0.19825c7.91089,0.09783 15.86365,1.33856 23.68689,2.69391c7.61206,1.31878 12.69006,7.49883 12.15296,15.95086c-0.6493,10.21887 -2.3357,20.40845 -4.13611,30.51044c-5.06067,28.39795 -10.41956,56.74292 -15.63575,85.11328c-0.77917,4.23804 -1.42285,8.50122 -2.19519,13.61475m-76.36316,160.78283c11.3733,-8.99804 18.38331,-20.89087 22.65198,-34.52136c1.58838,-5.0719 3.04724,-10.22266 4.03626,-15.43774c5.76538,-30.39661 11.44104,-60.8108 17.01929,-91.24243c8.93798,-48.76038 17.79614,-97.53528 26.59863,-146.32032c0.44873,-2.487 0.05774,-5.12561 0.05774,-9.41437c-30.67823,0.05017 -60.79175,-0.06347 -92.11682,0.09424c-13.01343,71.54193 -25.89783,142.37433 -38.76197,213.09601c-24.12915,0 -47.24548,0 -70.82043,0c0.18518,-2.26037 0.18201,-3.90637 0.47131,-5.49951c5.4657,-30.11658 10.96131,-60.22766 16.46155,-90.33789c1.74365,-9.54566 0.97852,-10.65503 -8.51563,-10.68433c-24.65454,-0.0758 -49.30969,-0.06653 -73.96435,-0.00427c-9.01917,0.02283 -9.20337,0.21533 -10.86621,9.2041c-5.20459,28.1333 -10.56494,56.24036 -15.44287,84.43054c-3.45886,19.98804 -7.05188,40.01075 -9.11109,60.16858c-2.65039,25.94312 10.59253,43.81165 35.88623,49.85108c8.68946,2.07483 17.73352,3.59656 26.63379,3.69348c37.31043,0.40661 74.63538,0.62463 111.9397,0.00061c20.1073,-0.3363 39.81824,-3.78003 57.84289,-17.07642m-99.03698,-264.9057c1.31164,-7.19458 2.72864,-14.37195 3.90893,-21.58801c1.59095,-9.72669 1.10791,-10.36517 -8.53466,-10.3952c-24.63526,-0.07672 -49.27112,-0.06366 -73.9065,-0.00257c-9.0343,0.02234 -9.23682,0.09229 -10.90918,9.06318c-4.99621,26.80011 -9.88086,53.62152 -14.67468,80.45867c-1.64014,9.18177 -0.40344,10.62354 8.91748,10.65564c24.63513,0.08496 49.27112,0.07971 73.90637,0.00025c8.43164,-0.02722 9.27686,-0.90174 10.83777,-9.55371c3.4231,-18.97559 6.82312,-37.95545 10.45447,-58.63825z" fill="#04060A"/>
  <path id="svg_9" d="m313.07411,368.91783c-17.46167,12.85144 -37.17261,16.29517 -57.27991,16.63147c-37.30432,0.62402 -74.62927,0.406 -111.9397,-0.00061c-8.90027,-0.09692 -17.94433,-1.61865 -26.63379,-3.69348c-25.2937,-6.03943 -38.53662,-23.90796 -35.88623,-49.85108c2.05921,-20.15783 5.65223,-40.18054 9.11109,-60.16858c4.87793,-28.19018 10.23828,-56.29724 15.44287,-84.43054c1.66284,-8.98877 1.84704,-9.18127 10.86621,-9.2041c24.65466,-0.06226 49.30981,-0.07153 73.96435,0.00427c9.49415,0.0293 10.25928,1.13867 8.51563,10.68433c-5.50024,30.11023 -10.99585,60.22131 -16.46155,90.33789c-0.2893,1.59314 -0.28613,3.23914 -0.47131,5.49951c23.57495,0 46.69128,0 70.82043,0c12.86414,-70.72168 25.74854,-141.55408 38.76197,-213.09601c31.32507,-0.15771 61.43859,-0.04407 92.11682,-0.09424c0,4.28876 0.39099,6.92737 -0.05774,9.41437c-8.80249,48.78504 -17.66065,97.55994 -26.59863,146.32032c-5.57825,30.43163 -11.25391,60.84582 -17.01929,91.24243c-0.98902,5.21508 -2.44788,10.36584 -4.03626,15.43774c-4.26867,13.63049 -11.27868,25.52332 -23.21496,34.96631m60.74048,-256.48486c2.04321,-11.92041 4.08642,-23.84089 6.18188,-36.06598c-28.72034,0 -56.25793,0 -84.50537,0c-12.94446,71.20379 -25.82886,142.07684 -38.65308,212.61944c-16.22631,1.76026 -72.51538,1.15857 -79.97046,-0.85595c6.23218,-34.8031 12.47412,-69.66089 18.82166,-105.10816c-28.94678,0 -56.45654,0 -84.29626,0c-0.46644,1.99951 -0.89918,3.55518 -1.18775,5.13721c-5.96924,32.7185 -12.15027,65.40088 -17.78064,98.17773c-2.75476,16.03638 -5.56482,32.19287 -6.41528,48.39637c-1.24951,23.80749 9.80066,37.86547 32.9397,42.92346c10.9685,2.39734 22.39746,3.45874 33.64416,3.66113c27.96973,0.5033 55.95569,0.29822 83.93298,0.09973c10.97449,-0.07788 21.98072,-0.48706 32.90601,-1.47913c15.12414,-1.37341 29.44092,-5.54199 41.63354,-15.14367c12.64063,-9.95459 19.49561,-23.58191 22.86658,-38.83411c4.51953,-20.44983 8.38538,-41.05115 12.1853,-61.65137c9.23096,-50.04199 18.26172,-100.12109 27.69703,-151.8767z" fill="#EADCD9"/>
  <path id="svg_10" d="m214.48915,104.41954c-3.52039,19.83044 -6.92041,38.8103 -10.34351,57.78589c-1.56091,8.65197 -2.40613,9.52649 -10.83777,9.55371c-24.63525,0.07946 -49.27124,0.08471 -73.90637,-0.00025c-9.32092,-0.0321 -10.55762,-1.47387 -8.91748,-10.65564c4.79382,-26.83715 9.67847,-53.65856 14.67468,-80.45867c1.67236,-8.97089 1.87488,-9.04084 10.90918,-9.06318c24.63538,-0.06109 49.27124,-0.07415 73.9065,0.00257c9.64257,0.03003 10.12561,0.66851 8.53466,10.3952c-1.18029,7.21606 -2.59729,14.39343 -4.01989,22.44037m-9.39344,27.39563c3.29419,-18.25427 6.58838,-36.50855 9.99378,-55.37885c-28.79358,0 -56.58447,0 -84.74219,0c-5.48279,30.37555 -10.87744,60.26288 -16.34729,90.56647c28.92468,0 56.40747,0 84.71777,0c2.02857,-11.38574 4,-22.45019 6.37793,-35.18762z" fill="#EBDEDB"/>
  <path id="svg_12" fill=" rgba(1, 49, 132, 0)" d="m2196.73047,1166.84875c3.76245,-19.34533 7.0686,-37.91296 10.82251,-56.38952c1.95434,-9.61817 3.15771,-10.31104 12.5293,-10.47852c6.24243,-0.11157 12.48877,-0.02111 20.23535,-0.02111c-5.54541,30.45507 -10.85181,59.59814 -16.31177,89.58386c-7.70654,0 -14.64673,0.48071 -21.48853,-0.13379c-6.99243,-0.62805 -8.90966,-3.95838 -7.71289,-10.95069c0.61402,-3.58752 1.10743,-7.1958 1.92603,-11.61023z"/>
  <path id="svg_18" d="m373.65272,113.27867c-9.27344,50.90991 -18.3042,100.98901 -27.53516,151.031c-3.79992,20.60022 -7.66577,41.20154 -12.1853,61.65137c-3.37097,15.2522 -10.22595,28.87952 -22.86658,38.83411c-12.19262,9.60168 -26.5094,13.77026 -41.63354,15.14367c-10.92529,0.99207 -21.93152,1.40125 -32.90601,1.47913c-27.97729,0.19849 -55.96325,0.40357 -83.93298,-0.09973c-11.2467,-0.20239 -22.67566,-1.26379 -33.64416,-3.66113c-23.13904,-5.05799 -34.18921,-19.11597 -32.9397,-42.92346c0.85046,-16.2035 3.66052,-32.35999 6.41528,-48.39637c5.63037,-32.77685 11.8114,-65.45923 17.78064,-98.17773c0.28857,-1.58203 0.72131,-3.1377 1.18775,-5.13721c27.83972,0 55.34948,0 84.29626,0c-6.34754,35.44727 -12.58948,70.30506 -18.82166,105.10816c7.45508,2.01452 63.74415,2.61621 79.97046,0.85595c12.82422,-70.5426 25.70862,-141.41565 38.65308,-212.61944c28.24744,0 55.78503,0 84.50537,0c-2.09546,12.22509 -4.13867,24.14557 -6.34375,36.91168z" fill="#FA4718"/>
  <path id="svg_19" d="m204.89247,132.65172c-2.17469,11.90088 -4.14612,22.96533 -6.17469,34.35107c-28.3103,0 -55.79309,0 -84.71777,0c5.46985,-30.30359 10.8645,-60.19092 16.34729,-90.56647c28.15772,0 55.94861,0 84.74219,0c-3.4054,18.8703 -6.69959,37.12458 -10.19702,56.2154z" fill="#FA4819"/>
 </g>
</svg>